%TF.GenerationSoftware,KiCad,Pcbnew,(5.1.7)-1*%
%TF.CreationDate,2020-10-17T18:25:27+02:00*%
%TF.ProjectId,SteirischeWortUhr2,53746569-7269-4736-9368-65576f727455,rev?*%
%TF.SameCoordinates,Original*%
%TF.FileFunction,Soldermask,Top*%
%TF.FilePolarity,Negative*%
%FSLAX46Y46*%
G04 Gerber Fmt 4.6, Leading zero omitted, Abs format (unit mm)*
G04 Created by KiCad (PCBNEW (5.1.7)-1) date 2020-10-17 18:25:27*
%MOMM*%
%LPD*%
G01*
G04 APERTURE LIST*
%ADD10O,1.700000X2.000000*%
%ADD11O,1.400000X1.400000*%
%ADD12C,1.400000*%
%ADD13C,1.800000*%
%ADD14R,1.800000X1.800000*%
%ADD15O,1.200000X2.000000*%
%ADD16C,1.600000*%
%ADD17R,1.600000X1.600000*%
%ADD18O,1.600000X1.600000*%
G04 APERTURE END LIST*
D10*
%TO.C,J2KEY1*%
X111085000Y-164973000D03*
G36*
G01*
X107735000Y-165723000D02*
X107735000Y-164223000D01*
G75*
G02*
X107985000Y-163973000I250000J0D01*
G01*
X109185000Y-163973000D01*
G75*
G02*
X109435000Y-164223000I0J-250000D01*
G01*
X109435000Y-165723000D01*
G75*
G02*
X109185000Y-165973000I-250000J0D01*
G01*
X107985000Y-165973000D01*
G75*
G02*
X107735000Y-165723000I0J250000D01*
G01*
G37*
%TD*%
%TO.C,J1PWR1*%
X102449000Y-164973000D03*
G36*
G01*
X99099000Y-165723000D02*
X99099000Y-164223000D01*
G75*
G02*
X99349000Y-163973000I250000J0D01*
G01*
X100549000Y-163973000D01*
G75*
G02*
X100799000Y-164223000I0J-250000D01*
G01*
X100799000Y-165723000D01*
G75*
G02*
X100549000Y-165973000I-250000J0D01*
G01*
X99349000Y-165973000D01*
G75*
G02*
X99099000Y-165723000I0J250000D01*
G01*
G37*
%TD*%
D11*
%TO.C,R11*%
X128524000Y-151638000D03*
D12*
X120904000Y-151638000D03*
%TD*%
D11*
%TO.C,R10*%
X71120000Y-147320000D03*
D12*
X78740000Y-147320000D03*
%TD*%
D11*
%TO.C,R9*%
X71120000Y-144780000D03*
D12*
X78740000Y-144780000D03*
%TD*%
D11*
%TO.C,R8*%
X109220000Y-137160000D03*
D12*
X101600000Y-137160000D03*
%TD*%
D11*
%TO.C,R7*%
X71120000Y-131064000D03*
D12*
X78740000Y-131064000D03*
%TD*%
D11*
%TO.C,R6*%
X109220000Y-139700000D03*
D12*
X101600000Y-139700000D03*
%TD*%
D11*
%TO.C,R5*%
X78740000Y-137160000D03*
D12*
X71120000Y-137160000D03*
%TD*%
D11*
%TO.C,R4*%
X71120000Y-134620000D03*
D12*
X78740000Y-134620000D03*
%TD*%
D11*
%TO.C,R3*%
X92710000Y-102870000D03*
D12*
X92710000Y-110490000D03*
%TD*%
D11*
%TO.C,R2*%
X90170000Y-102870000D03*
D12*
X90170000Y-110490000D03*
%TD*%
D11*
%TO.C,R1*%
X95250000Y-102870000D03*
D12*
X95250000Y-110490000D03*
%TD*%
D13*
%TO.C,LED_\u00D6FE_1*%
X137000000Y-161460000D03*
D14*
X137000000Y-164000000D03*
%TD*%
D13*
%TO.C,LED_ZW\u00D6LFE_3*%
X20000000Y-107460000D03*
D14*
X20000000Y-110000000D03*
%TD*%
D13*
%TO.C,LED_ZW\u00D6LFE_2*%
X50000000Y-107460000D03*
D14*
X50000000Y-110000000D03*
%TD*%
D13*
%TO.C,LED_ZW\u00D6LFE_1*%
X80000000Y-107460000D03*
D14*
X80000000Y-110000000D03*
%TD*%
D13*
%TO.C,LED_ZWA_1*%
X89000000Y-71460000D03*
D14*
X89000000Y-74000000D03*
%TD*%
D13*
%TO.C,LED_ZEHNE_2*%
X104000000Y-143460000D03*
D14*
X104000000Y-146000000D03*
%TD*%
D13*
%TO.C,LED_ZEHNE_1*%
X140000000Y-143460000D03*
D14*
X140000000Y-146000000D03*
%TD*%
D13*
%TO.C,LED_VUABEI_3*%
X20000000Y-161460000D03*
D14*
X20000000Y-164000000D03*
%TD*%
D13*
%TO.C,LED_VUABEI_2*%
X50000000Y-161460000D03*
D14*
X50000000Y-164000000D03*
%TD*%
D13*
%TO.C,LED_VUABEI_1*%
X80000000Y-161460000D03*
D14*
X80000000Y-164000000D03*
%TD*%
D13*
%TO.C,LED_VIERTL_3*%
X20000000Y-53460000D03*
D14*
X20000000Y-56000000D03*
%TD*%
D13*
%TO.C,LED_VIERTL_2*%
X50000000Y-53460000D03*
D14*
X50000000Y-56000000D03*
%TD*%
D13*
%TO.C,LED_VIERTL_1*%
X80000000Y-53460000D03*
D14*
X80000000Y-56000000D03*
%TD*%
D13*
%TO.C,LED_VIERE_2*%
X104000000Y-89460000D03*
D14*
X104000000Y-92000000D03*
%TD*%
D13*
%TO.C,LED_VIERE_1*%
X140000000Y-89460000D03*
D14*
X140000000Y-92000000D03*
%TD*%
D13*
%TO.C,LED_SIEBN_2*%
X24000000Y-143460000D03*
D14*
X24000000Y-146000000D03*
%TD*%
D13*
%TO.C,LED_SIEBN_1*%
X60000000Y-143460000D03*
D14*
X60000000Y-146000000D03*
%TD*%
D13*
%TO.C,LED_SEXE_2*%
X144000000Y-107460000D03*
D14*
X144000000Y-110000000D03*
%TD*%
D13*
%TO.C,LED_SEXE_1*%
X116000000Y-107460000D03*
D14*
X116000000Y-110000000D03*
%TD*%
D13*
%TO.C,LED_SCHO_2*%
X116000000Y-35460000D03*
D14*
X116000000Y-38000000D03*
%TD*%
D13*
%TO.C,LED_SCHO_1*%
X144000000Y-35460000D03*
D14*
X144000000Y-38000000D03*
%TD*%
D13*
%TO.C,LED_OCHTE_2*%
X104000000Y-125460000D03*
D14*
X104000000Y-128000000D03*
%TD*%
D13*
%TO.C,LED_OCHTE_1*%
X140000000Y-125460000D03*
D14*
X140000000Y-128000000D03*
%TD*%
D13*
%TO.C,LED_NAINE_2*%
X24000000Y-125460000D03*
D14*
X24000000Y-128000000D03*
%TD*%
D13*
%TO.C,LED_NAINE_1*%
X60000000Y-125460000D03*
D14*
X60000000Y-128000000D03*
%TD*%
D13*
%TO.C,LED_HOLBA_2*%
X24000000Y-35460000D03*
D14*
X24000000Y-38000000D03*
%TD*%
D13*
%TO.C,LED_HOLBA_1*%
X60000000Y-35460000D03*
D14*
X60000000Y-38000000D03*
%TD*%
D13*
%TO.C,LED_GLEI_2*%
X20000000Y-17460000D03*
D14*
X20000000Y-20000000D03*
%TD*%
D13*
%TO.C,LED_GLEI_1*%
X48000000Y-17460000D03*
D14*
X48000000Y-20000000D03*
%TD*%
D13*
%TO.C,LED_F\u00DCNFE_2*%
X24000000Y-89460000D03*
D14*
X24000000Y-92000000D03*
%TD*%
D13*
%TO.C,LED_F\u00DCNFE_1*%
X60000000Y-89460000D03*
D14*
X60000000Y-92000000D03*
%TD*%
D13*
%TO.C,LED_ESIS_2*%
X98000000Y-17460000D03*
D14*
X98000000Y-20000000D03*
%TD*%
D13*
%TO.C,LED_ESIS_1*%
X146000000Y-17460000D03*
D14*
X146000000Y-20000000D03*
%TD*%
D13*
%TO.C,LED_DREI_2*%
X20000000Y-71460000D03*
D14*
X20000000Y-74000000D03*
%TD*%
D13*
%TO.C,LED_DREI_1*%
X48000000Y-71460000D03*
D14*
X48000000Y-74000000D03*
%TD*%
D13*
%TO.C,LED_DREI4TL_2*%
X116000000Y-53460000D03*
D14*
X116000000Y-56000000D03*
%TD*%
D13*
%TO.C,LED_DREI4TL_1*%
X144000000Y-53460000D03*
D14*
X144000000Y-56000000D03*
%TD*%
D13*
%TO.C,LED_ANS_1*%
X137000000Y-71460000D03*
D14*
X137000000Y-74000000D03*
%TD*%
D15*
%TO.C,DCF2*%
X128524000Y-155448000D03*
X125984000Y-155448000D03*
X123444000Y-155448000D03*
X120904000Y-155448000D03*
X118364000Y-155448000D03*
%TD*%
%TO.C,DCF1*%
X125984000Y-159258000D03*
X123444000Y-159258000D03*
X120904000Y-159258000D03*
X118364000Y-159258000D03*
%TD*%
D16*
%TO.C,C1*%
X134874000Y-151718000D03*
D17*
X134874000Y-156718000D03*
%TD*%
D18*
%TO.C,ArduinoNanoV3*%
X97790000Y-152400000D03*
X82550000Y-152400000D03*
X97790000Y-116840000D03*
X82550000Y-149860000D03*
X97790000Y-119380000D03*
X82550000Y-147320000D03*
X97790000Y-121920000D03*
X82550000Y-144780000D03*
X97790000Y-124460000D03*
X82550000Y-142240000D03*
X97790000Y-127000000D03*
X82550000Y-139700000D03*
X97790000Y-129540000D03*
X82550000Y-137160000D03*
X97790000Y-132080000D03*
X82550000Y-134620000D03*
X97790000Y-134620000D03*
X82550000Y-132080000D03*
X97790000Y-137160000D03*
X82550000Y-129540000D03*
X97790000Y-139700000D03*
X82550000Y-127000000D03*
X97790000Y-142240000D03*
X82550000Y-124460000D03*
X97790000Y-144780000D03*
X82550000Y-121920000D03*
X97790000Y-147320000D03*
X82550000Y-119380000D03*
X97790000Y-149860000D03*
D17*
X82550000Y-116840000D03*
%TD*%
M02*
