%TF.GenerationSoftware,KiCad,Pcbnew,(5.1.7)-1*%
%TF.CreationDate,2020-10-17T18:25:27+02:00*%
%TF.ProjectId,SteirischeWortUhr2,53746569-7269-4736-9368-65576f727455,rev?*%
%TF.SameCoordinates,Original*%
%TF.FileFunction,Legend,Top*%
%TF.FilePolarity,Positive*%
%FSLAX46Y46*%
G04 Gerber Fmt 4.6, Leading zero omitted, Abs format (unit mm)*
G04 Created by KiCad (PCBNEW (5.1.7)-1) date 2020-10-17 18:25:27*
%MOMM*%
%LPD*%
G01*
G04 APERTURE LIST*
%ADD10C,0.300000*%
%ADD11C,0.120000*%
%ADD12C,0.010000*%
%ADD13C,0.150000*%
G04 APERTURE END LIST*
D10*
X72616714Y-46576142D02*
X72831000Y-46647571D01*
X73188142Y-46647571D01*
X73331000Y-46576142D01*
X73402428Y-46504714D01*
X73473857Y-46361857D01*
X73473857Y-46219000D01*
X73402428Y-46076142D01*
X73331000Y-46004714D01*
X73188142Y-45933285D01*
X72902428Y-45861857D01*
X72759571Y-45790428D01*
X72688142Y-45719000D01*
X72616714Y-45576142D01*
X72616714Y-45433285D01*
X72688142Y-45290428D01*
X72759571Y-45219000D01*
X72902428Y-45147571D01*
X73259571Y-45147571D01*
X73473857Y-45219000D01*
X73902428Y-45647571D02*
X74473857Y-45647571D01*
X74116714Y-45147571D02*
X74116714Y-46433285D01*
X74188142Y-46576142D01*
X74331000Y-46647571D01*
X74473857Y-46647571D01*
X75545285Y-46576142D02*
X75402428Y-46647571D01*
X75116714Y-46647571D01*
X74973857Y-46576142D01*
X74902428Y-46433285D01*
X74902428Y-45861857D01*
X74973857Y-45719000D01*
X75116714Y-45647571D01*
X75402428Y-45647571D01*
X75545285Y-45719000D01*
X75616714Y-45861857D01*
X75616714Y-46004714D01*
X74902428Y-46147571D01*
X76259571Y-46647571D02*
X76259571Y-45647571D01*
X76259571Y-45147571D02*
X76188142Y-45219000D01*
X76259571Y-45290428D01*
X76331000Y-45219000D01*
X76259571Y-45147571D01*
X76259571Y-45290428D01*
X76973857Y-46647571D02*
X76973857Y-45647571D01*
X76973857Y-45933285D02*
X77045285Y-45790428D01*
X77116714Y-45719000D01*
X77259571Y-45647571D01*
X77402428Y-45647571D01*
X77902428Y-46647571D02*
X77902428Y-45647571D01*
X77902428Y-45147571D02*
X77831000Y-45219000D01*
X77902428Y-45290428D01*
X77973857Y-45219000D01*
X77902428Y-45147571D01*
X77902428Y-45290428D01*
X78545285Y-46576142D02*
X78688142Y-46647571D01*
X78973857Y-46647571D01*
X79116714Y-46576142D01*
X79188142Y-46433285D01*
X79188142Y-46361857D01*
X79116714Y-46219000D01*
X78973857Y-46147571D01*
X78759571Y-46147571D01*
X78616714Y-46076142D01*
X78545285Y-45933285D01*
X78545285Y-45861857D01*
X78616714Y-45719000D01*
X78759571Y-45647571D01*
X78973857Y-45647571D01*
X79116714Y-45719000D01*
X80473857Y-46576142D02*
X80331000Y-46647571D01*
X80045285Y-46647571D01*
X79902428Y-46576142D01*
X79831000Y-46504714D01*
X79759571Y-46361857D01*
X79759571Y-45933285D01*
X79831000Y-45790428D01*
X79902428Y-45719000D01*
X80045285Y-45647571D01*
X80331000Y-45647571D01*
X80473857Y-45719000D01*
X81116714Y-46647571D02*
X81116714Y-45147571D01*
X81759571Y-46647571D02*
X81759571Y-45861857D01*
X81688142Y-45719000D01*
X81545285Y-45647571D01*
X81331000Y-45647571D01*
X81188142Y-45719000D01*
X81116714Y-45790428D01*
X83045285Y-46576142D02*
X82902428Y-46647571D01*
X82616714Y-46647571D01*
X82473857Y-46576142D01*
X82402428Y-46433285D01*
X82402428Y-45861857D01*
X82473857Y-45719000D01*
X82616714Y-45647571D01*
X82902428Y-45647571D01*
X83045285Y-45719000D01*
X83116714Y-45861857D01*
X83116714Y-46004714D01*
X82402428Y-46147571D01*
X84759571Y-45147571D02*
X85116714Y-46647571D01*
X85402428Y-45576142D01*
X85688142Y-46647571D01*
X86045285Y-45147571D01*
X86831000Y-46647571D02*
X86688142Y-46576142D01*
X86616714Y-46504714D01*
X86545285Y-46361857D01*
X86545285Y-45933285D01*
X86616714Y-45790428D01*
X86688142Y-45719000D01*
X86831000Y-45647571D01*
X87045285Y-45647571D01*
X87188142Y-45719000D01*
X87259571Y-45790428D01*
X87331000Y-45933285D01*
X87331000Y-46361857D01*
X87259571Y-46504714D01*
X87188142Y-46576142D01*
X87045285Y-46647571D01*
X86831000Y-46647571D01*
X87973857Y-46647571D02*
X87973857Y-45647571D01*
X87973857Y-45933285D02*
X88045285Y-45790428D01*
X88116714Y-45719000D01*
X88259571Y-45647571D01*
X88402428Y-45647571D01*
X88688142Y-45647571D02*
X89259571Y-45647571D01*
X88902428Y-45147571D02*
X88902428Y-46433285D01*
X88973857Y-46576142D01*
X89116714Y-46647571D01*
X89259571Y-46647571D01*
X90902428Y-45147571D02*
X90902428Y-46361857D01*
X90973857Y-46504714D01*
X91045285Y-46576142D01*
X91188142Y-46647571D01*
X91473857Y-46647571D01*
X91616714Y-46576142D01*
X91688142Y-46504714D01*
X91759571Y-46361857D01*
X91759571Y-45147571D01*
X92473857Y-46647571D02*
X92473857Y-45147571D01*
X93116714Y-46647571D02*
X93116714Y-45861857D01*
X93045285Y-45719000D01*
X92902428Y-45647571D01*
X92688142Y-45647571D01*
X92545285Y-45719000D01*
X92473857Y-45790428D01*
X93831000Y-46647571D02*
X93831000Y-45647571D01*
X93831000Y-45933285D02*
X93902428Y-45790428D01*
X93973857Y-45719000D01*
X94116714Y-45647571D01*
X94259571Y-45647571D01*
X95688142Y-45147571D02*
X96188142Y-46647571D01*
X96688142Y-45147571D01*
X97116714Y-45290428D02*
X97188142Y-45219000D01*
X97331000Y-45147571D01*
X97688142Y-45147571D01*
X97831000Y-45219000D01*
X97902428Y-45290428D01*
X97973857Y-45433285D01*
X97973857Y-45576142D01*
X97902428Y-45790428D01*
X97045285Y-46647571D01*
X97973857Y-46647571D01*
X73116714Y-49769000D02*
X73045285Y-49697571D01*
X72902428Y-49483285D01*
X72831000Y-49340428D01*
X72759571Y-49126142D01*
X72688142Y-48769000D01*
X72688142Y-48483285D01*
X72759571Y-48126142D01*
X72831000Y-47911857D01*
X72902428Y-47769000D01*
X73045285Y-47554714D01*
X73116714Y-47483285D01*
X74545285Y-49054714D02*
X74473857Y-49126142D01*
X74259571Y-49197571D01*
X74116714Y-49197571D01*
X73902428Y-49126142D01*
X73759571Y-48983285D01*
X73688142Y-48840428D01*
X73616714Y-48554714D01*
X73616714Y-48340428D01*
X73688142Y-48054714D01*
X73759571Y-47911857D01*
X73902428Y-47769000D01*
X74116714Y-47697571D01*
X74259571Y-47697571D01*
X74473857Y-47769000D01*
X74545285Y-47840428D01*
X75045285Y-49769000D02*
X75116714Y-49697571D01*
X75259571Y-49483285D01*
X75331000Y-49340428D01*
X75402428Y-49126142D01*
X75473857Y-48769000D01*
X75473857Y-48483285D01*
X75402428Y-48126142D01*
X75331000Y-47911857D01*
X75259571Y-47769000D01*
X75116714Y-47554714D01*
X75045285Y-47483285D01*
X78188142Y-49054714D02*
X78116714Y-49126142D01*
X77902428Y-49197571D01*
X77759571Y-49197571D01*
X77545285Y-49126142D01*
X77402428Y-48983285D01*
X77331000Y-48840428D01*
X77259571Y-48554714D01*
X77259571Y-48340428D01*
X77331000Y-48054714D01*
X77402428Y-47911857D01*
X77545285Y-47769000D01*
X77759571Y-47697571D01*
X77902428Y-47697571D01*
X78116714Y-47769000D01*
X78188142Y-47840428D01*
X79045285Y-49197571D02*
X78902428Y-49126142D01*
X78831000Y-49054714D01*
X78759571Y-48911857D01*
X78759571Y-48483285D01*
X78831000Y-48340428D01*
X78902428Y-48269000D01*
X79045285Y-48197571D01*
X79259571Y-48197571D01*
X79402428Y-48269000D01*
X79473857Y-48340428D01*
X79545285Y-48483285D01*
X79545285Y-48911857D01*
X79473857Y-49054714D01*
X79402428Y-49126142D01*
X79259571Y-49197571D01*
X79045285Y-49197571D01*
X80188142Y-48197571D02*
X80188142Y-49697571D01*
X80188142Y-48269000D02*
X80331000Y-48197571D01*
X80616714Y-48197571D01*
X80759571Y-48269000D01*
X80831000Y-48340428D01*
X80902428Y-48483285D01*
X80902428Y-48911857D01*
X80831000Y-49054714D01*
X80759571Y-49126142D01*
X80616714Y-49197571D01*
X80331000Y-49197571D01*
X80188142Y-49126142D01*
X81402428Y-48197571D02*
X81759571Y-49197571D01*
X82116714Y-48197571D02*
X81759571Y-49197571D01*
X81616714Y-49554714D01*
X81545285Y-49626142D01*
X81402428Y-49697571D01*
X82688142Y-49197571D02*
X82688142Y-48197571D01*
X82688142Y-48483285D02*
X82759571Y-48340428D01*
X82831000Y-48269000D01*
X82973857Y-48197571D01*
X83116714Y-48197571D01*
X83616714Y-49197571D02*
X83616714Y-48197571D01*
X83616714Y-47697571D02*
X83545285Y-47769000D01*
X83616714Y-47840428D01*
X83688142Y-47769000D01*
X83616714Y-47697571D01*
X83616714Y-47840428D01*
X84973857Y-48197571D02*
X84973857Y-49411857D01*
X84902428Y-49554714D01*
X84831000Y-49626142D01*
X84688142Y-49697571D01*
X84473857Y-49697571D01*
X84331000Y-49626142D01*
X84973857Y-49126142D02*
X84831000Y-49197571D01*
X84545285Y-49197571D01*
X84402428Y-49126142D01*
X84331000Y-49054714D01*
X84259571Y-48911857D01*
X84259571Y-48483285D01*
X84331000Y-48340428D01*
X84402428Y-48269000D01*
X84545285Y-48197571D01*
X84831000Y-48197571D01*
X84973857Y-48269000D01*
X85688142Y-49197571D02*
X85688142Y-47697571D01*
X86331000Y-49197571D02*
X86331000Y-48411857D01*
X86259571Y-48269000D01*
X86116714Y-48197571D01*
X85902428Y-48197571D01*
X85759571Y-48269000D01*
X85688142Y-48340428D01*
X86831000Y-48197571D02*
X87402428Y-48197571D01*
X87045285Y-47697571D02*
X87045285Y-48983285D01*
X87116714Y-49126142D01*
X87259571Y-49197571D01*
X87402428Y-49197571D01*
X88973857Y-47840428D02*
X89045285Y-47769000D01*
X89188142Y-47697571D01*
X89545285Y-47697571D01*
X89688142Y-47769000D01*
X89759571Y-47840428D01*
X89831000Y-47983285D01*
X89831000Y-48126142D01*
X89759571Y-48340428D01*
X88902428Y-49197571D01*
X89831000Y-49197571D01*
X90759571Y-47697571D02*
X90902428Y-47697571D01*
X91045285Y-47769000D01*
X91116714Y-47840428D01*
X91188142Y-47983285D01*
X91259571Y-48269000D01*
X91259571Y-48626142D01*
X91188142Y-48911857D01*
X91116714Y-49054714D01*
X91045285Y-49126142D01*
X90902428Y-49197571D01*
X90759571Y-49197571D01*
X90616714Y-49126142D01*
X90545285Y-49054714D01*
X90473857Y-48911857D01*
X90402428Y-48626142D01*
X90402428Y-48269000D01*
X90473857Y-47983285D01*
X90545285Y-47840428D01*
X90616714Y-47769000D01*
X90759571Y-47697571D01*
X91831000Y-47840428D02*
X91902428Y-47769000D01*
X92045285Y-47697571D01*
X92402428Y-47697571D01*
X92545285Y-47769000D01*
X92616714Y-47840428D01*
X92688142Y-47983285D01*
X92688142Y-48126142D01*
X92616714Y-48340428D01*
X91759571Y-49197571D01*
X92688142Y-49197571D01*
X93616714Y-47697571D02*
X93759571Y-47697571D01*
X93902428Y-47769000D01*
X93973857Y-47840428D01*
X94045285Y-47983285D01*
X94116714Y-48269000D01*
X94116714Y-48626142D01*
X94045285Y-48911857D01*
X93973857Y-49054714D01*
X93902428Y-49126142D01*
X93759571Y-49197571D01*
X93616714Y-49197571D01*
X93473857Y-49126142D01*
X93402428Y-49054714D01*
X93331000Y-48911857D01*
X93259571Y-48626142D01*
X93259571Y-48269000D01*
X93331000Y-47983285D01*
X93402428Y-47840428D01*
X93473857Y-47769000D01*
X93616714Y-47697571D01*
X115867571Y-167576285D02*
X114367571Y-167576285D01*
X115867571Y-166719142D02*
X115010428Y-167362000D01*
X114367571Y-166719142D02*
X115224714Y-167576285D01*
X115081857Y-166076285D02*
X115081857Y-165576285D01*
X115867571Y-165362000D02*
X115867571Y-166076285D01*
X114367571Y-166076285D01*
X114367571Y-165362000D01*
X115153285Y-164433428D02*
X115867571Y-164433428D01*
X114367571Y-164933428D02*
X115153285Y-164433428D01*
X114367571Y-163933428D01*
X96436571Y-167735000D02*
X94936571Y-167735000D01*
X94936571Y-167163571D01*
X95008000Y-167020714D01*
X95079428Y-166949285D01*
X95222285Y-166877857D01*
X95436571Y-166877857D01*
X95579428Y-166949285D01*
X95650857Y-167020714D01*
X95722285Y-167163571D01*
X95722285Y-167735000D01*
X94936571Y-166377857D02*
X96436571Y-166020714D01*
X95365142Y-165735000D01*
X96436571Y-165449285D01*
X94936571Y-165092142D01*
X96436571Y-163663571D02*
X95722285Y-164163571D01*
X96436571Y-164520714D02*
X94936571Y-164520714D01*
X94936571Y-163949285D01*
X95008000Y-163806428D01*
X95079428Y-163735000D01*
X95222285Y-163663571D01*
X95436571Y-163663571D01*
X95579428Y-163735000D01*
X95650857Y-163806428D01*
X95722285Y-163949285D01*
X95722285Y-164520714D01*
D11*
%TO.C,J2KEY1*%
X106025000Y-162513000D02*
X106025000Y-168483000D01*
X106025000Y-168483000D02*
X113645000Y-168483000D01*
X113645000Y-168483000D02*
X113645000Y-162513000D01*
X113645000Y-162513000D02*
X106025000Y-162513000D01*
X109335000Y-162523000D02*
X109335000Y-163273000D01*
X109335000Y-163273000D02*
X110335000Y-163273000D01*
X110335000Y-163273000D02*
X110335000Y-162523000D01*
X110335000Y-162523000D02*
X109335000Y-162523000D01*
X106035000Y-162523000D02*
X106035000Y-163273000D01*
X106035000Y-163273000D02*
X107835000Y-163273000D01*
X107835000Y-163273000D02*
X107835000Y-162523000D01*
X107835000Y-162523000D02*
X106035000Y-162523000D01*
X111835000Y-162523000D02*
X111835000Y-163273000D01*
X111835000Y-163273000D02*
X113635000Y-163273000D01*
X113635000Y-163273000D02*
X113635000Y-162523000D01*
X113635000Y-162523000D02*
X111835000Y-162523000D01*
X106035000Y-164773000D02*
X106785000Y-164773000D01*
X106785000Y-164773000D02*
X106785000Y-167723000D01*
X106785000Y-167723000D02*
X109835000Y-167723000D01*
X113635000Y-164773000D02*
X112885000Y-164773000D01*
X112885000Y-164773000D02*
X112885000Y-167723000D01*
X112885000Y-167723000D02*
X109835000Y-167723000D01*
X106985000Y-162223000D02*
X105735000Y-162223000D01*
X105735000Y-162223000D02*
X105735000Y-163473000D01*
%TO.C,J1PWR1*%
X97389000Y-162513000D02*
X97389000Y-168483000D01*
X97389000Y-168483000D02*
X105009000Y-168483000D01*
X105009000Y-168483000D02*
X105009000Y-162513000D01*
X105009000Y-162513000D02*
X97389000Y-162513000D01*
X100699000Y-162523000D02*
X100699000Y-163273000D01*
X100699000Y-163273000D02*
X101699000Y-163273000D01*
X101699000Y-163273000D02*
X101699000Y-162523000D01*
X101699000Y-162523000D02*
X100699000Y-162523000D01*
X97399000Y-162523000D02*
X97399000Y-163273000D01*
X97399000Y-163273000D02*
X99199000Y-163273000D01*
X99199000Y-163273000D02*
X99199000Y-162523000D01*
X99199000Y-162523000D02*
X97399000Y-162523000D01*
X103199000Y-162523000D02*
X103199000Y-163273000D01*
X103199000Y-163273000D02*
X104999000Y-163273000D01*
X104999000Y-163273000D02*
X104999000Y-162523000D01*
X104999000Y-162523000D02*
X103199000Y-162523000D01*
X97399000Y-164773000D02*
X98149000Y-164773000D01*
X98149000Y-164773000D02*
X98149000Y-167723000D01*
X98149000Y-167723000D02*
X101199000Y-167723000D01*
X104999000Y-164773000D02*
X104249000Y-164773000D01*
X104249000Y-164773000D02*
X104249000Y-167723000D01*
X104249000Y-167723000D02*
X101199000Y-167723000D01*
X98349000Y-162223000D02*
X97099000Y-162223000D01*
X97099000Y-162223000D02*
X97099000Y-163473000D01*
D12*
%TO.C,G\u002A\u002A\u002A*%
G36*
X96700095Y-27843824D02*
G01*
X96956281Y-27945913D01*
X97287170Y-28157751D01*
X97663563Y-28455383D01*
X98056257Y-28814850D01*
X98436053Y-29212196D01*
X98598737Y-29401521D01*
X98840007Y-29725063D01*
X99096833Y-30122961D01*
X99351363Y-30560986D01*
X99585747Y-31004910D01*
X99782136Y-31420505D01*
X99922679Y-31773540D01*
X99989526Y-32029787D01*
X99992630Y-32074406D01*
X100001037Y-32247008D01*
X100040824Y-32383025D01*
X100136745Y-32510498D01*
X100313552Y-32657466D01*
X100596000Y-32851968D01*
X100793564Y-32981676D01*
X101439709Y-33450808D01*
X101989002Y-33945844D01*
X102427823Y-34449617D01*
X102742553Y-34944958D01*
X102919571Y-35414700D01*
X102954350Y-35705352D01*
X102878767Y-36153507D01*
X102653649Y-36523642D01*
X102280167Y-36814945D01*
X101759492Y-37026605D01*
X101092796Y-37157812D01*
X100816833Y-37185229D01*
X100507935Y-37216580D01*
X100277227Y-37254096D01*
X100165330Y-37290764D01*
X100160667Y-37298567D01*
X100228393Y-37367890D01*
X100408298Y-37496639D01*
X100665469Y-37660344D01*
X100745658Y-37708572D01*
X101432376Y-38176358D01*
X101991159Y-38683492D01*
X102404790Y-39213333D01*
X102526984Y-39430377D01*
X102717882Y-39931267D01*
X102785934Y-40403354D01*
X102734253Y-40821805D01*
X102565949Y-41161788D01*
X102284136Y-41398469D01*
X102280105Y-41400567D01*
X101880364Y-41521885D01*
X101481707Y-41476621D01*
X101092993Y-41267347D01*
X100778960Y-40964718D01*
X100659195Y-40833072D01*
X100632280Y-40833272D01*
X100664191Y-40909601D01*
X100756132Y-41266713D01*
X100725250Y-41646014D01*
X100586770Y-41995464D01*
X100355915Y-42263024D01*
X100248105Y-42331900D01*
X100048741Y-42422386D01*
X99881910Y-42447849D01*
X99690522Y-42403340D01*
X99417489Y-42283909D01*
X99356333Y-42254587D01*
X99135657Y-42119298D01*
X98827540Y-41890840D01*
X98464825Y-41595225D01*
X98080360Y-41258467D01*
X97965100Y-41152759D01*
X97360577Y-40609589D01*
X96824924Y-40175360D01*
X96318902Y-39828682D01*
X95803275Y-39548163D01*
X95238804Y-39312413D01*
X94586252Y-39100039D01*
X93820395Y-38893195D01*
X92307913Y-38585247D01*
X90837963Y-38439768D01*
X89403254Y-38457391D01*
X87996494Y-38638748D01*
X86610394Y-38984470D01*
X85237662Y-39495190D01*
X84848207Y-39670886D01*
X84356078Y-39877798D01*
X83964634Y-39982009D01*
X83642069Y-39986271D01*
X83356579Y-39893337D01*
X83218687Y-39811879D01*
X82893950Y-39516952D01*
X82702881Y-39171817D01*
X82671621Y-38904727D01*
X83003337Y-38904727D01*
X83021044Y-39022618D01*
X83139640Y-39250192D01*
X83347995Y-39466368D01*
X83587990Y-39620885D01*
X83765404Y-39666334D01*
X83917352Y-39633263D01*
X84182139Y-39543863D01*
X84518895Y-39412846D01*
X84796074Y-39295259D01*
X86086768Y-38787690D01*
X87337381Y-38421950D01*
X88584727Y-38189002D01*
X89720987Y-38086086D01*
X90660333Y-38071736D01*
X91576564Y-38126217D01*
X92521200Y-38255132D01*
X93545759Y-38464085D01*
X93839294Y-38534099D01*
X94676419Y-38755674D01*
X95383088Y-38985696D01*
X95997768Y-39244367D01*
X96558927Y-39551889D01*
X97105034Y-39928465D01*
X97674557Y-40394295D01*
X98086333Y-40764493D01*
X98558569Y-41195366D01*
X98930358Y-41520186D01*
X99220966Y-41752660D01*
X99449659Y-41906496D01*
X99635702Y-41995401D01*
X99798362Y-42033082D01*
X99874862Y-42037000D01*
X100098910Y-42001762D01*
X100242241Y-41863737D01*
X100285492Y-41787205D01*
X100381142Y-41563191D01*
X100400473Y-41364952D01*
X100336682Y-41140068D01*
X100182966Y-40836122D01*
X100155751Y-40787586D01*
X99979194Y-40418810D01*
X99928673Y-40157449D01*
X100004321Y-39997681D01*
X100175345Y-39936502D01*
X100307175Y-39943964D01*
X100439954Y-40015729D01*
X100605439Y-40176642D01*
X100835389Y-40451550D01*
X100838288Y-40455166D01*
X101194125Y-40853531D01*
X101504405Y-41096911D01*
X101780786Y-41189695D01*
X102034926Y-41136272D01*
X102238848Y-40982515D01*
X102389191Y-40771526D01*
X102443092Y-40502072D01*
X102444807Y-40411015D01*
X102363538Y-39911047D01*
X102123073Y-39417856D01*
X101720683Y-38927883D01*
X101153643Y-38437572D01*
X100677381Y-38105239D01*
X100273123Y-37827956D01*
X100006135Y-37602972D01*
X99860470Y-37410491D01*
X99820179Y-37230718D01*
X99853282Y-37082269D01*
X99888453Y-37009862D01*
X99948933Y-36957554D01*
X100065226Y-36917187D01*
X100267837Y-36880600D01*
X100587272Y-36839633D01*
X100891412Y-36804585D01*
X101547145Y-36691340D01*
X102045459Y-36518109D01*
X102387574Y-36284134D01*
X102574707Y-35988656D01*
X102614140Y-35731661D01*
X102532507Y-35326505D01*
X102299715Y-34880645D01*
X101925635Y-34405751D01*
X101420138Y-33913494D01*
X100793096Y-33415543D01*
X100457000Y-33181382D01*
X99695000Y-32671367D01*
X99639251Y-32219560D01*
X99519808Y-31727451D01*
X99285755Y-31166757D01*
X98958088Y-30570309D01*
X98557803Y-29970938D01*
X98105894Y-29401473D01*
X97623356Y-28894746D01*
X97367382Y-28667007D01*
X96962815Y-28360154D01*
X96652060Y-28190142D01*
X96436553Y-28156834D01*
X96317735Y-28260092D01*
X96297044Y-28499778D01*
X96345719Y-28764762D01*
X96473914Y-29219934D01*
X96628154Y-29649379D01*
X96827660Y-30097492D01*
X97091648Y-30608670D01*
X97326065Y-31029493D01*
X97575977Y-31480577D01*
X97739303Y-31809200D01*
X97821565Y-32034993D01*
X97828280Y-32177590D01*
X97764970Y-32256622D01*
X97679127Y-32285186D01*
X97529039Y-32277505D01*
X97383970Y-32179309D01*
X97224971Y-31969678D01*
X97033091Y-31627692D01*
X96968640Y-31500874D01*
X96761097Y-31117242D01*
X96515386Y-30707267D01*
X96306416Y-30391328D01*
X96056477Y-30071176D01*
X95755095Y-29733734D01*
X95432545Y-29407820D01*
X95119097Y-29122253D01*
X94845025Y-28905849D01*
X94640600Y-28787427D01*
X94612024Y-28778354D01*
X94367531Y-28785583D01*
X94200487Y-28922945D01*
X94149333Y-29120871D01*
X94181035Y-29322660D01*
X94263963Y-29625859D01*
X94379853Y-29977460D01*
X94510439Y-30324455D01*
X94637457Y-30613837D01*
X94709088Y-30745354D01*
X94921336Y-31060127D01*
X95192264Y-31432410D01*
X95480776Y-31808236D01*
X95745776Y-32133640D01*
X95893224Y-32300334D01*
X96158475Y-32637580D01*
X96282584Y-32928504D01*
X96260078Y-33159845D01*
X96253344Y-33172623D01*
X96169649Y-33266456D01*
X96036493Y-33304297D01*
X95827797Y-33283337D01*
X95517487Y-33200765D01*
X95079487Y-33053771D01*
X95048382Y-33042772D01*
X94750177Y-32939655D01*
X94504955Y-32866341D01*
X94273249Y-32817748D01*
X94015591Y-32788794D01*
X93692513Y-32774399D01*
X93264548Y-32769481D01*
X92921667Y-32768961D01*
X92204618Y-32781293D01*
X91599764Y-32825728D01*
X91051887Y-32912985D01*
X90505773Y-33053785D01*
X89906205Y-33258847D01*
X89418353Y-33449101D01*
X89101538Y-33576191D01*
X88851950Y-33675066D01*
X88705299Y-33731639D01*
X88681630Y-33739667D01*
X88679586Y-33662705D01*
X88689936Y-33461373D01*
X88709442Y-33192226D01*
X88728667Y-32892118D01*
X88714456Y-32700955D01*
X88649154Y-32559084D01*
X88515106Y-32406854D01*
X88460837Y-32352237D01*
X88102298Y-32085829D01*
X87729161Y-31986397D01*
X87346474Y-32054962D01*
X87237179Y-32104984D01*
X86945899Y-32332386D01*
X86726461Y-32647607D01*
X86618781Y-32988858D01*
X86614000Y-33069658D01*
X86688948Y-33368859D01*
X86889817Y-33671569D01*
X87180645Y-33931625D01*
X87371888Y-34042601D01*
X87742440Y-34218535D01*
X87199387Y-34543062D01*
X86812988Y-34782837D01*
X86382089Y-35064921D01*
X85930984Y-35371782D01*
X85483964Y-35685886D01*
X85065321Y-35989699D01*
X84699347Y-36265689D01*
X84410334Y-36496322D01*
X84222574Y-36664065D01*
X84165265Y-36733004D01*
X84103268Y-36902565D01*
X84103681Y-37105677D01*
X84155673Y-37367855D01*
X84219554Y-37721196D01*
X84194522Y-37957903D01*
X84060919Y-38115867D01*
X83799087Y-38232976D01*
X83689312Y-38266763D01*
X83300906Y-38428782D01*
X83071796Y-38641947D01*
X83003337Y-38904727D01*
X82671621Y-38904727D01*
X82660212Y-38807252D01*
X82681072Y-38688465D01*
X82828961Y-38374332D01*
X83105948Y-38127515D01*
X83528562Y-37932269D01*
X83755331Y-37827376D01*
X83838955Y-37712209D01*
X83838618Y-37661485D01*
X83809877Y-37477663D01*
X83769746Y-37224191D01*
X83762354Y-37177784D01*
X83763456Y-36826186D01*
X83864246Y-36561454D01*
X84022441Y-36364603D01*
X84322658Y-36092754D01*
X84757886Y-35751303D01*
X85321114Y-35345646D01*
X86005332Y-34881180D01*
X86291685Y-34692939D01*
X86943036Y-34268137D01*
X86725273Y-34067402D01*
X86442218Y-33702851D01*
X86300721Y-33287377D01*
X86296116Y-32855452D01*
X86423737Y-32441551D01*
X86678918Y-32080144D01*
X87029483Y-31819852D01*
X87494048Y-31658323D01*
X87945984Y-31654227D01*
X88360623Y-31796094D01*
X88713295Y-32072453D01*
X88979331Y-32471832D01*
X89090480Y-32778193D01*
X89169460Y-33012132D01*
X89251218Y-33103969D01*
X89320289Y-33097869D01*
X90348956Y-32741021D01*
X91395736Y-32500678D01*
X92435155Y-32377980D01*
X93441738Y-32374067D01*
X94390012Y-32490082D01*
X95254502Y-32727163D01*
X95492424Y-32821518D01*
X95716258Y-32909031D01*
X95866179Y-32951837D01*
X95897972Y-32950583D01*
X95860237Y-32877105D01*
X95733823Y-32702398D01*
X95539670Y-32454291D01*
X95348082Y-32219776D01*
X95068700Y-31871178D01*
X94797490Y-31511552D01*
X94574792Y-31195294D01*
X94487383Y-31059184D01*
X94284154Y-30672621D01*
X94096736Y-30225140D01*
X93943323Y-29769964D01*
X93842109Y-29360315D01*
X93810667Y-29079565D01*
X93883542Y-28754739D01*
X94085715Y-28524390D01*
X94392511Y-28412531D01*
X94503205Y-28405667D01*
X94699667Y-28427127D01*
X94897768Y-28503773D01*
X95126093Y-28654002D01*
X95413223Y-28896209D01*
X95736833Y-29199654D01*
X95980258Y-29425785D01*
X96119083Y-29523773D01*
X96165136Y-29488432D01*
X96130246Y-29314576D01*
X96048798Y-29062863D01*
X95944441Y-28614190D01*
X95959309Y-28253641D01*
X96086223Y-27994657D01*
X96318000Y-27850678D01*
X96647460Y-27835148D01*
X96700095Y-27843824D01*
G37*
X96700095Y-27843824D02*
X96956281Y-27945913D01*
X97287170Y-28157751D01*
X97663563Y-28455383D01*
X98056257Y-28814850D01*
X98436053Y-29212196D01*
X98598737Y-29401521D01*
X98840007Y-29725063D01*
X99096833Y-30122961D01*
X99351363Y-30560986D01*
X99585747Y-31004910D01*
X99782136Y-31420505D01*
X99922679Y-31773540D01*
X99989526Y-32029787D01*
X99992630Y-32074406D01*
X100001037Y-32247008D01*
X100040824Y-32383025D01*
X100136745Y-32510498D01*
X100313552Y-32657466D01*
X100596000Y-32851968D01*
X100793564Y-32981676D01*
X101439709Y-33450808D01*
X101989002Y-33945844D01*
X102427823Y-34449617D01*
X102742553Y-34944958D01*
X102919571Y-35414700D01*
X102954350Y-35705352D01*
X102878767Y-36153507D01*
X102653649Y-36523642D01*
X102280167Y-36814945D01*
X101759492Y-37026605D01*
X101092796Y-37157812D01*
X100816833Y-37185229D01*
X100507935Y-37216580D01*
X100277227Y-37254096D01*
X100165330Y-37290764D01*
X100160667Y-37298567D01*
X100228393Y-37367890D01*
X100408298Y-37496639D01*
X100665469Y-37660344D01*
X100745658Y-37708572D01*
X101432376Y-38176358D01*
X101991159Y-38683492D01*
X102404790Y-39213333D01*
X102526984Y-39430377D01*
X102717882Y-39931267D01*
X102785934Y-40403354D01*
X102734253Y-40821805D01*
X102565949Y-41161788D01*
X102284136Y-41398469D01*
X102280105Y-41400567D01*
X101880364Y-41521885D01*
X101481707Y-41476621D01*
X101092993Y-41267347D01*
X100778960Y-40964718D01*
X100659195Y-40833072D01*
X100632280Y-40833272D01*
X100664191Y-40909601D01*
X100756132Y-41266713D01*
X100725250Y-41646014D01*
X100586770Y-41995464D01*
X100355915Y-42263024D01*
X100248105Y-42331900D01*
X100048741Y-42422386D01*
X99881910Y-42447849D01*
X99690522Y-42403340D01*
X99417489Y-42283909D01*
X99356333Y-42254587D01*
X99135657Y-42119298D01*
X98827540Y-41890840D01*
X98464825Y-41595225D01*
X98080360Y-41258467D01*
X97965100Y-41152759D01*
X97360577Y-40609589D01*
X96824924Y-40175360D01*
X96318902Y-39828682D01*
X95803275Y-39548163D01*
X95238804Y-39312413D01*
X94586252Y-39100039D01*
X93820395Y-38893195D01*
X92307913Y-38585247D01*
X90837963Y-38439768D01*
X89403254Y-38457391D01*
X87996494Y-38638748D01*
X86610394Y-38984470D01*
X85237662Y-39495190D01*
X84848207Y-39670886D01*
X84356078Y-39877798D01*
X83964634Y-39982009D01*
X83642069Y-39986271D01*
X83356579Y-39893337D01*
X83218687Y-39811879D01*
X82893950Y-39516952D01*
X82702881Y-39171817D01*
X82671621Y-38904727D01*
X83003337Y-38904727D01*
X83021044Y-39022618D01*
X83139640Y-39250192D01*
X83347995Y-39466368D01*
X83587990Y-39620885D01*
X83765404Y-39666334D01*
X83917352Y-39633263D01*
X84182139Y-39543863D01*
X84518895Y-39412846D01*
X84796074Y-39295259D01*
X86086768Y-38787690D01*
X87337381Y-38421950D01*
X88584727Y-38189002D01*
X89720987Y-38086086D01*
X90660333Y-38071736D01*
X91576564Y-38126217D01*
X92521200Y-38255132D01*
X93545759Y-38464085D01*
X93839294Y-38534099D01*
X94676419Y-38755674D01*
X95383088Y-38985696D01*
X95997768Y-39244367D01*
X96558927Y-39551889D01*
X97105034Y-39928465D01*
X97674557Y-40394295D01*
X98086333Y-40764493D01*
X98558569Y-41195366D01*
X98930358Y-41520186D01*
X99220966Y-41752660D01*
X99449659Y-41906496D01*
X99635702Y-41995401D01*
X99798362Y-42033082D01*
X99874862Y-42037000D01*
X100098910Y-42001762D01*
X100242241Y-41863737D01*
X100285492Y-41787205D01*
X100381142Y-41563191D01*
X100400473Y-41364952D01*
X100336682Y-41140068D01*
X100182966Y-40836122D01*
X100155751Y-40787586D01*
X99979194Y-40418810D01*
X99928673Y-40157449D01*
X100004321Y-39997681D01*
X100175345Y-39936502D01*
X100307175Y-39943964D01*
X100439954Y-40015729D01*
X100605439Y-40176642D01*
X100835389Y-40451550D01*
X100838288Y-40455166D01*
X101194125Y-40853531D01*
X101504405Y-41096911D01*
X101780786Y-41189695D01*
X102034926Y-41136272D01*
X102238848Y-40982515D01*
X102389191Y-40771526D01*
X102443092Y-40502072D01*
X102444807Y-40411015D01*
X102363538Y-39911047D01*
X102123073Y-39417856D01*
X101720683Y-38927883D01*
X101153643Y-38437572D01*
X100677381Y-38105239D01*
X100273123Y-37827956D01*
X100006135Y-37602972D01*
X99860470Y-37410491D01*
X99820179Y-37230718D01*
X99853282Y-37082269D01*
X99888453Y-37009862D01*
X99948933Y-36957554D01*
X100065226Y-36917187D01*
X100267837Y-36880600D01*
X100587272Y-36839633D01*
X100891412Y-36804585D01*
X101547145Y-36691340D01*
X102045459Y-36518109D01*
X102387574Y-36284134D01*
X102574707Y-35988656D01*
X102614140Y-35731661D01*
X102532507Y-35326505D01*
X102299715Y-34880645D01*
X101925635Y-34405751D01*
X101420138Y-33913494D01*
X100793096Y-33415543D01*
X100457000Y-33181382D01*
X99695000Y-32671367D01*
X99639251Y-32219560D01*
X99519808Y-31727451D01*
X99285755Y-31166757D01*
X98958088Y-30570309D01*
X98557803Y-29970938D01*
X98105894Y-29401473D01*
X97623356Y-28894746D01*
X97367382Y-28667007D01*
X96962815Y-28360154D01*
X96652060Y-28190142D01*
X96436553Y-28156834D01*
X96317735Y-28260092D01*
X96297044Y-28499778D01*
X96345719Y-28764762D01*
X96473914Y-29219934D01*
X96628154Y-29649379D01*
X96827660Y-30097492D01*
X97091648Y-30608670D01*
X97326065Y-31029493D01*
X97575977Y-31480577D01*
X97739303Y-31809200D01*
X97821565Y-32034993D01*
X97828280Y-32177590D01*
X97764970Y-32256622D01*
X97679127Y-32285186D01*
X97529039Y-32277505D01*
X97383970Y-32179309D01*
X97224971Y-31969678D01*
X97033091Y-31627692D01*
X96968640Y-31500874D01*
X96761097Y-31117242D01*
X96515386Y-30707267D01*
X96306416Y-30391328D01*
X96056477Y-30071176D01*
X95755095Y-29733734D01*
X95432545Y-29407820D01*
X95119097Y-29122253D01*
X94845025Y-28905849D01*
X94640600Y-28787427D01*
X94612024Y-28778354D01*
X94367531Y-28785583D01*
X94200487Y-28922945D01*
X94149333Y-29120871D01*
X94181035Y-29322660D01*
X94263963Y-29625859D01*
X94379853Y-29977460D01*
X94510439Y-30324455D01*
X94637457Y-30613837D01*
X94709088Y-30745354D01*
X94921336Y-31060127D01*
X95192264Y-31432410D01*
X95480776Y-31808236D01*
X95745776Y-32133640D01*
X95893224Y-32300334D01*
X96158475Y-32637580D01*
X96282584Y-32928504D01*
X96260078Y-33159845D01*
X96253344Y-33172623D01*
X96169649Y-33266456D01*
X96036493Y-33304297D01*
X95827797Y-33283337D01*
X95517487Y-33200765D01*
X95079487Y-33053771D01*
X95048382Y-33042772D01*
X94750177Y-32939655D01*
X94504955Y-32866341D01*
X94273249Y-32817748D01*
X94015591Y-32788794D01*
X93692513Y-32774399D01*
X93264548Y-32769481D01*
X92921667Y-32768961D01*
X92204618Y-32781293D01*
X91599764Y-32825728D01*
X91051887Y-32912985D01*
X90505773Y-33053785D01*
X89906205Y-33258847D01*
X89418353Y-33449101D01*
X89101538Y-33576191D01*
X88851950Y-33675066D01*
X88705299Y-33731639D01*
X88681630Y-33739667D01*
X88679586Y-33662705D01*
X88689936Y-33461373D01*
X88709442Y-33192226D01*
X88728667Y-32892118D01*
X88714456Y-32700955D01*
X88649154Y-32559084D01*
X88515106Y-32406854D01*
X88460837Y-32352237D01*
X88102298Y-32085829D01*
X87729161Y-31986397D01*
X87346474Y-32054962D01*
X87237179Y-32104984D01*
X86945899Y-32332386D01*
X86726461Y-32647607D01*
X86618781Y-32988858D01*
X86614000Y-33069658D01*
X86688948Y-33368859D01*
X86889817Y-33671569D01*
X87180645Y-33931625D01*
X87371888Y-34042601D01*
X87742440Y-34218535D01*
X87199387Y-34543062D01*
X86812988Y-34782837D01*
X86382089Y-35064921D01*
X85930984Y-35371782D01*
X85483964Y-35685886D01*
X85065321Y-35989699D01*
X84699347Y-36265689D01*
X84410334Y-36496322D01*
X84222574Y-36664065D01*
X84165265Y-36733004D01*
X84103268Y-36902565D01*
X84103681Y-37105677D01*
X84155673Y-37367855D01*
X84219554Y-37721196D01*
X84194522Y-37957903D01*
X84060919Y-38115867D01*
X83799087Y-38232976D01*
X83689312Y-38266763D01*
X83300906Y-38428782D01*
X83071796Y-38641947D01*
X83003337Y-38904727D01*
X82671621Y-38904727D01*
X82660212Y-38807252D01*
X82681072Y-38688465D01*
X82828961Y-38374332D01*
X83105948Y-38127515D01*
X83528562Y-37932269D01*
X83755331Y-37827376D01*
X83838955Y-37712209D01*
X83838618Y-37661485D01*
X83809877Y-37477663D01*
X83769746Y-37224191D01*
X83762354Y-37177784D01*
X83763456Y-36826186D01*
X83864246Y-36561454D01*
X84022441Y-36364603D01*
X84322658Y-36092754D01*
X84757886Y-35751303D01*
X85321114Y-35345646D01*
X86005332Y-34881180D01*
X86291685Y-34692939D01*
X86943036Y-34268137D01*
X86725273Y-34067402D01*
X86442218Y-33702851D01*
X86300721Y-33287377D01*
X86296116Y-32855452D01*
X86423737Y-32441551D01*
X86678918Y-32080144D01*
X87029483Y-31819852D01*
X87494048Y-31658323D01*
X87945984Y-31654227D01*
X88360623Y-31796094D01*
X88713295Y-32072453D01*
X88979331Y-32471832D01*
X89090480Y-32778193D01*
X89169460Y-33012132D01*
X89251218Y-33103969D01*
X89320289Y-33097869D01*
X90348956Y-32741021D01*
X91395736Y-32500678D01*
X92435155Y-32377980D01*
X93441738Y-32374067D01*
X94390012Y-32490082D01*
X95254502Y-32727163D01*
X95492424Y-32821518D01*
X95716258Y-32909031D01*
X95866179Y-32951837D01*
X95897972Y-32950583D01*
X95860237Y-32877105D01*
X95733823Y-32702398D01*
X95539670Y-32454291D01*
X95348082Y-32219776D01*
X95068700Y-31871178D01*
X94797490Y-31511552D01*
X94574792Y-31195294D01*
X94487383Y-31059184D01*
X94284154Y-30672621D01*
X94096736Y-30225140D01*
X93943323Y-29769964D01*
X93842109Y-29360315D01*
X93810667Y-29079565D01*
X93883542Y-28754739D01*
X94085715Y-28524390D01*
X94392511Y-28412531D01*
X94503205Y-28405667D01*
X94699667Y-28427127D01*
X94897768Y-28503773D01*
X95126093Y-28654002D01*
X95413223Y-28896209D01*
X95736833Y-29199654D01*
X95980258Y-29425785D01*
X96119083Y-29523773D01*
X96165136Y-29488432D01*
X96130246Y-29314576D01*
X96048798Y-29062863D01*
X95944441Y-28614190D01*
X95959309Y-28253641D01*
X96086223Y-27994657D01*
X96318000Y-27850678D01*
X96647460Y-27835148D01*
X96700095Y-27843824D01*
G36*
X94636167Y-41566770D02*
G01*
X94959441Y-41584335D01*
X95218578Y-41598333D01*
X95365665Y-41606178D01*
X95377000Y-41606760D01*
X95509614Y-41598665D01*
X95733789Y-41573271D01*
X95800333Y-41564411D01*
X96096906Y-41552574D01*
X96296968Y-41628710D01*
X96420227Y-41815243D01*
X96486387Y-42134599D01*
X96505098Y-42366437D01*
X96520465Y-42678688D01*
X96514828Y-42858459D01*
X96476812Y-42942326D01*
X96395038Y-42966868D01*
X96317888Y-42968334D01*
X96195082Y-42958628D01*
X96128944Y-42902881D01*
X96101975Y-42761146D01*
X96096678Y-42493477D01*
X96096667Y-42463312D01*
X96086298Y-42163939D01*
X96046900Y-41988074D01*
X95966035Y-41890707D01*
X95932899Y-41870646D01*
X95769481Y-41795590D01*
X95664228Y-41815222D01*
X95552381Y-41916048D01*
X95454618Y-42123003D01*
X95419435Y-42483737D01*
X95419333Y-42508714D01*
X95413668Y-42773243D01*
X95383874Y-42910202D01*
X95310749Y-42961283D01*
X95207667Y-42968334D01*
X95093159Y-42958463D01*
X95029780Y-42903140D01*
X95002449Y-42763801D01*
X94996084Y-42501879D01*
X94996000Y-42427059D01*
X94974011Y-42070743D01*
X94901921Y-41866847D01*
X94770543Y-41803477D01*
X94570690Y-41868736D01*
X94566533Y-41870949D01*
X94471525Y-41954032D01*
X94421490Y-42103039D01*
X94404057Y-42362874D01*
X94403333Y-42463312D01*
X94398789Y-42743827D01*
X94374016Y-42894918D01*
X94312300Y-42956460D01*
X94196931Y-42968328D01*
X94191667Y-42968334D01*
X94089110Y-42961712D01*
X94026547Y-42919482D01*
X93994095Y-42808094D01*
X93981873Y-42594000D01*
X93980000Y-42249681D01*
X93980000Y-41531028D01*
X94636167Y-41566770D01*
G37*
X94636167Y-41566770D02*
X94959441Y-41584335D01*
X95218578Y-41598333D01*
X95365665Y-41606178D01*
X95377000Y-41606760D01*
X95509614Y-41598665D01*
X95733789Y-41573271D01*
X95800333Y-41564411D01*
X96096906Y-41552574D01*
X96296968Y-41628710D01*
X96420227Y-41815243D01*
X96486387Y-42134599D01*
X96505098Y-42366437D01*
X96520465Y-42678688D01*
X96514828Y-42858459D01*
X96476812Y-42942326D01*
X96395038Y-42966868D01*
X96317888Y-42968334D01*
X96195082Y-42958628D01*
X96128944Y-42902881D01*
X96101975Y-42761146D01*
X96096678Y-42493477D01*
X96096667Y-42463312D01*
X96086298Y-42163939D01*
X96046900Y-41988074D01*
X95966035Y-41890707D01*
X95932899Y-41870646D01*
X95769481Y-41795590D01*
X95664228Y-41815222D01*
X95552381Y-41916048D01*
X95454618Y-42123003D01*
X95419435Y-42483737D01*
X95419333Y-42508714D01*
X95413668Y-42773243D01*
X95383874Y-42910202D01*
X95310749Y-42961283D01*
X95207667Y-42968334D01*
X95093159Y-42958463D01*
X95029780Y-42903140D01*
X95002449Y-42763801D01*
X94996084Y-42501879D01*
X94996000Y-42427059D01*
X94974011Y-42070743D01*
X94901921Y-41866847D01*
X94770543Y-41803477D01*
X94570690Y-41868736D01*
X94566533Y-41870949D01*
X94471525Y-41954032D01*
X94421490Y-42103039D01*
X94404057Y-42362874D01*
X94403333Y-42463312D01*
X94398789Y-42743827D01*
X94374016Y-42894918D01*
X94312300Y-42956460D01*
X94196931Y-42968328D01*
X94191667Y-42968334D01*
X94089110Y-42961712D01*
X94026547Y-42919482D01*
X93994095Y-42808094D01*
X93981873Y-42594000D01*
X93980000Y-42249681D01*
X93980000Y-41531028D01*
X94636167Y-41566770D01*
G36*
X93173566Y-41594715D02*
G01*
X93437506Y-41769249D01*
X93594206Y-42018683D01*
X93628865Y-42309099D01*
X93526684Y-42606578D01*
X93370343Y-42796657D01*
X93104142Y-42940255D01*
X92777085Y-42974552D01*
X92455817Y-42901680D01*
X92240485Y-42760515D01*
X92057909Y-42480248D01*
X92024875Y-42220369D01*
X92445055Y-42220369D01*
X92485684Y-42446537D01*
X92613726Y-42628285D01*
X92818859Y-42711203D01*
X92830333Y-42711759D01*
X92947508Y-42662271D01*
X93063166Y-42574211D01*
X93199135Y-42353339D01*
X93184893Y-42107304D01*
X93048323Y-41909689D01*
X92888042Y-41807099D01*
X92718456Y-41830544D01*
X92667323Y-41852418D01*
X92502161Y-42004193D01*
X92445055Y-42220369D01*
X92024875Y-42220369D01*
X92020249Y-42183977D01*
X92111017Y-41906911D01*
X92313724Y-41684258D01*
X92611883Y-41551229D01*
X92817186Y-41529000D01*
X93173566Y-41594715D01*
G37*
X93173566Y-41594715D02*
X93437506Y-41769249D01*
X93594206Y-42018683D01*
X93628865Y-42309099D01*
X93526684Y-42606578D01*
X93370343Y-42796657D01*
X93104142Y-42940255D01*
X92777085Y-42974552D01*
X92455817Y-42901680D01*
X92240485Y-42760515D01*
X92057909Y-42480248D01*
X92024875Y-42220369D01*
X92445055Y-42220369D01*
X92485684Y-42446537D01*
X92613726Y-42628285D01*
X92818859Y-42711203D01*
X92830333Y-42711759D01*
X92947508Y-42662271D01*
X93063166Y-42574211D01*
X93199135Y-42353339D01*
X93184893Y-42107304D01*
X93048323Y-41909689D01*
X92888042Y-41807099D01*
X92718456Y-41830544D01*
X92667323Y-41852418D01*
X92502161Y-42004193D01*
X92445055Y-42220369D01*
X92024875Y-42220369D01*
X92020249Y-42183977D01*
X92111017Y-41906911D01*
X92313724Y-41684258D01*
X92611883Y-41551229D01*
X92817186Y-41529000D01*
X93173566Y-41594715D01*
G36*
X91441964Y-41567205D02*
G01*
X91673485Y-41660106D01*
X91687386Y-41669364D01*
X91820337Y-41775809D01*
X91821458Y-41848853D01*
X91738616Y-41918801D01*
X91596325Y-41983247D01*
X91443245Y-41930923D01*
X91399654Y-41903517D01*
X91159016Y-41825358D01*
X90948917Y-41909214D01*
X90840291Y-42050159D01*
X90786903Y-42286689D01*
X90858604Y-42492099D01*
X91018174Y-42629530D01*
X91228394Y-42662123D01*
X91393402Y-42597914D01*
X91562617Y-42516659D01*
X91697936Y-42550913D01*
X91738616Y-42578533D01*
X91832004Y-42664718D01*
X91802602Y-42740294D01*
X91687386Y-42827970D01*
X91374242Y-42952825D01*
X91022185Y-42950406D01*
X90699428Y-42824580D01*
X90623454Y-42767639D01*
X90430747Y-42510863D01*
X90379014Y-42226478D01*
X90452308Y-41950503D01*
X90634679Y-41718958D01*
X90910180Y-41567863D01*
X91171882Y-41529000D01*
X91441964Y-41567205D01*
G37*
X91441964Y-41567205D02*
X91673485Y-41660106D01*
X91687386Y-41669364D01*
X91820337Y-41775809D01*
X91821458Y-41848853D01*
X91738616Y-41918801D01*
X91596325Y-41983247D01*
X91443245Y-41930923D01*
X91399654Y-41903517D01*
X91159016Y-41825358D01*
X90948917Y-41909214D01*
X90840291Y-42050159D01*
X90786903Y-42286689D01*
X90858604Y-42492099D01*
X91018174Y-42629530D01*
X91228394Y-42662123D01*
X91393402Y-42597914D01*
X91562617Y-42516659D01*
X91697936Y-42550913D01*
X91738616Y-42578533D01*
X91832004Y-42664718D01*
X91802602Y-42740294D01*
X91687386Y-42827970D01*
X91374242Y-42952825D01*
X91022185Y-42950406D01*
X90699428Y-42824580D01*
X90623454Y-42767639D01*
X90430747Y-42510863D01*
X90379014Y-42226478D01*
X90452308Y-41950503D01*
X90634679Y-41718958D01*
X90910180Y-41567863D01*
X91171882Y-41529000D01*
X91441964Y-41567205D01*
G36*
X90041611Y-42597630D02*
G01*
X90125993Y-42732350D01*
X90127667Y-42757826D01*
X90062291Y-42897530D01*
X89916045Y-42959144D01*
X89763752Y-42928261D01*
X89692712Y-42841581D01*
X89690206Y-42678017D01*
X89726431Y-42616036D01*
X89883487Y-42550047D01*
X90041611Y-42597630D01*
G37*
X90041611Y-42597630D02*
X90125993Y-42732350D01*
X90127667Y-42757826D01*
X90062291Y-42897530D01*
X89916045Y-42959144D01*
X89763752Y-42928261D01*
X89692712Y-42841581D01*
X89690206Y-42678017D01*
X89726431Y-42616036D01*
X89883487Y-42550047D01*
X90041611Y-42597630D01*
G36*
X85384232Y-41594715D02*
G01*
X85648172Y-41769249D01*
X85804873Y-42018683D01*
X85839532Y-42309099D01*
X85737351Y-42606578D01*
X85581010Y-42796657D01*
X85314809Y-42940255D01*
X84987752Y-42974552D01*
X84666483Y-42901680D01*
X84451151Y-42760515D01*
X84268576Y-42480248D01*
X84235542Y-42220369D01*
X84655722Y-42220369D01*
X84696351Y-42446537D01*
X84824392Y-42628285D01*
X85029526Y-42711203D01*
X85041000Y-42711759D01*
X85158175Y-42662271D01*
X85273833Y-42574211D01*
X85409802Y-42353339D01*
X85395559Y-42107304D01*
X85258989Y-41909689D01*
X85098708Y-41807099D01*
X84929123Y-41830544D01*
X84877989Y-41852418D01*
X84712828Y-42004193D01*
X84655722Y-42220369D01*
X84235542Y-42220369D01*
X84230916Y-42183977D01*
X84321683Y-41906911D01*
X84524391Y-41684258D01*
X84822550Y-41551229D01*
X85027853Y-41529000D01*
X85384232Y-41594715D01*
G37*
X85384232Y-41594715D02*
X85648172Y-41769249D01*
X85804873Y-42018683D01*
X85839532Y-42309099D01*
X85737351Y-42606578D01*
X85581010Y-42796657D01*
X85314809Y-42940255D01*
X84987752Y-42974552D01*
X84666483Y-42901680D01*
X84451151Y-42760515D01*
X84268576Y-42480248D01*
X84235542Y-42220369D01*
X84655722Y-42220369D01*
X84696351Y-42446537D01*
X84824392Y-42628285D01*
X85029526Y-42711203D01*
X85041000Y-42711759D01*
X85158175Y-42662271D01*
X85273833Y-42574211D01*
X85409802Y-42353339D01*
X85395559Y-42107304D01*
X85258989Y-41909689D01*
X85098708Y-41807099D01*
X84929123Y-41830544D01*
X84877989Y-41852418D01*
X84712828Y-42004193D01*
X84655722Y-42220369D01*
X84235542Y-42220369D01*
X84230916Y-42183977D01*
X84321683Y-41906911D01*
X84524391Y-41684258D01*
X84822550Y-41551229D01*
X85027853Y-41529000D01*
X85384232Y-41594715D01*
G36*
X83904667Y-42968334D02*
G01*
X83481333Y-42968334D01*
X83481333Y-41021000D01*
X83904667Y-41021000D01*
X83904667Y-42968334D01*
G37*
X83904667Y-42968334D02*
X83481333Y-42968334D01*
X83481333Y-41021000D01*
X83904667Y-41021000D01*
X83904667Y-42968334D01*
G36*
X82714729Y-41592150D02*
G01*
X82980891Y-41773193D01*
X83122723Y-42059519D01*
X83142667Y-42248667D01*
X83072087Y-42585442D01*
X82869745Y-42823587D01*
X82549734Y-42950489D01*
X82338333Y-42968334D01*
X82040684Y-42940277D01*
X81829736Y-42838481D01*
X81741818Y-42760515D01*
X81566732Y-42477513D01*
X81544436Y-42248667D01*
X81957333Y-42248667D01*
X82017733Y-42469963D01*
X82164499Y-42646179D01*
X82338333Y-42714334D01*
X82487081Y-42658818D01*
X82586286Y-42581286D01*
X82695307Y-42378029D01*
X82695886Y-42143270D01*
X82605271Y-41932545D01*
X82440714Y-41801391D01*
X82338333Y-41783000D01*
X82157273Y-41856823D01*
X82013096Y-42036203D01*
X81957333Y-42248667D01*
X81544436Y-42248667D01*
X81535526Y-42157228D01*
X81648199Y-41851667D01*
X81741818Y-41736818D01*
X81938433Y-41592680D01*
X82187188Y-41534321D01*
X82338333Y-41529000D01*
X82714729Y-41592150D01*
G37*
X82714729Y-41592150D02*
X82980891Y-41773193D01*
X83122723Y-42059519D01*
X83142667Y-42248667D01*
X83072087Y-42585442D01*
X82869745Y-42823587D01*
X82549734Y-42950489D01*
X82338333Y-42968334D01*
X82040684Y-42940277D01*
X81829736Y-42838481D01*
X81741818Y-42760515D01*
X81566732Y-42477513D01*
X81544436Y-42248667D01*
X81957333Y-42248667D01*
X82017733Y-42469963D01*
X82164499Y-42646179D01*
X82338333Y-42714334D01*
X82487081Y-42658818D01*
X82586286Y-42581286D01*
X82695307Y-42378029D01*
X82695886Y-42143270D01*
X82605271Y-41932545D01*
X82440714Y-41801391D01*
X82338333Y-41783000D01*
X82157273Y-41856823D01*
X82013096Y-42036203D01*
X81957333Y-42248667D01*
X81544436Y-42248667D01*
X81535526Y-42157228D01*
X81648199Y-41851667D01*
X81741818Y-41736818D01*
X81938433Y-41592680D01*
X82187188Y-41534321D01*
X82338333Y-41529000D01*
X82714729Y-41592150D01*
G36*
X79068422Y-41559321D02*
G01*
X79337947Y-41632262D01*
X79495888Y-41788463D01*
X79569635Y-42053760D01*
X79586667Y-42418000D01*
X79582955Y-42713836D01*
X79562011Y-42878612D01*
X79509121Y-42950587D01*
X79409570Y-42968016D01*
X79375000Y-42968334D01*
X79256771Y-42957275D01*
X79193471Y-42897327D01*
X79168018Y-42748336D01*
X79163333Y-42470700D01*
X79136158Y-42097949D01*
X79050363Y-41877837D01*
X78899546Y-41801922D01*
X78695159Y-41853404D01*
X78577775Y-41924111D01*
X78514844Y-42031329D01*
X78489830Y-42222903D01*
X78486000Y-42458518D01*
X78481555Y-42740682D01*
X78457235Y-42893241D01*
X78396560Y-42955888D01*
X78283048Y-42968318D01*
X78274333Y-42968334D01*
X78171254Y-42961586D01*
X78108621Y-42918832D01*
X78076361Y-42806309D01*
X78064401Y-42590252D01*
X78062667Y-42258879D01*
X78062667Y-41549424D01*
X78659925Y-41543804D01*
X79068422Y-41559321D01*
G37*
X79068422Y-41559321D02*
X79337947Y-41632262D01*
X79495888Y-41788463D01*
X79569635Y-42053760D01*
X79586667Y-42418000D01*
X79582955Y-42713836D01*
X79562011Y-42878612D01*
X79509121Y-42950587D01*
X79409570Y-42968016D01*
X79375000Y-42968334D01*
X79256771Y-42957275D01*
X79193471Y-42897327D01*
X79168018Y-42748336D01*
X79163333Y-42470700D01*
X79136158Y-42097949D01*
X79050363Y-41877837D01*
X78899546Y-41801922D01*
X78695159Y-41853404D01*
X78577775Y-41924111D01*
X78514844Y-42031329D01*
X78489830Y-42222903D01*
X78486000Y-42458518D01*
X78481555Y-42740682D01*
X78457235Y-42893241D01*
X78396560Y-42955888D01*
X78283048Y-42968318D01*
X78274333Y-42968334D01*
X78171254Y-42961586D01*
X78108621Y-42918832D01*
X78076361Y-42806309D01*
X78064401Y-42590252D01*
X78062667Y-42258879D01*
X78062667Y-41549424D01*
X78659925Y-41543804D01*
X79068422Y-41559321D01*
G36*
X77121089Y-41559321D02*
G01*
X77390613Y-41632262D01*
X77548555Y-41788463D01*
X77622302Y-42053760D01*
X77639333Y-42418000D01*
X77635622Y-42713836D01*
X77614678Y-42878612D01*
X77561787Y-42950587D01*
X77462237Y-42968016D01*
X77427667Y-42968334D01*
X77309438Y-42957275D01*
X77246137Y-42897327D01*
X77220685Y-42748336D01*
X77216000Y-42470700D01*
X77188824Y-42097949D01*
X77103030Y-41877837D01*
X76952213Y-41801922D01*
X76747826Y-41853404D01*
X76630441Y-41924111D01*
X76567511Y-42031329D01*
X76542496Y-42222903D01*
X76538667Y-42458518D01*
X76534222Y-42740682D01*
X76509902Y-42893241D01*
X76449226Y-42955888D01*
X76335714Y-42968318D01*
X76327000Y-42968334D01*
X76223920Y-42961586D01*
X76161287Y-42918832D01*
X76129028Y-42806309D01*
X76117068Y-42590252D01*
X76115333Y-42258879D01*
X76115333Y-41549424D01*
X76712592Y-41543804D01*
X77121089Y-41559321D01*
G37*
X77121089Y-41559321D02*
X77390613Y-41632262D01*
X77548555Y-41788463D01*
X77622302Y-42053760D01*
X77639333Y-42418000D01*
X77635622Y-42713836D01*
X77614678Y-42878612D01*
X77561787Y-42950587D01*
X77462237Y-42968016D01*
X77427667Y-42968334D01*
X77309438Y-42957275D01*
X77246137Y-42897327D01*
X77220685Y-42748336D01*
X77216000Y-42470700D01*
X77188824Y-42097949D01*
X77103030Y-41877837D01*
X76952213Y-41801922D01*
X76747826Y-41853404D01*
X76630441Y-41924111D01*
X76567511Y-42031329D01*
X76542496Y-42222903D01*
X76538667Y-42458518D01*
X76534222Y-42740682D01*
X76509902Y-42893241D01*
X76449226Y-42955888D01*
X76335714Y-42968318D01*
X76327000Y-42968334D01*
X76223920Y-42961586D01*
X76161287Y-42918832D01*
X76129028Y-42806309D01*
X76117068Y-42590252D01*
X76115333Y-42258879D01*
X76115333Y-41549424D01*
X76712592Y-41543804D01*
X77121089Y-41559321D01*
G36*
X75583413Y-41535748D02*
G01*
X75646046Y-41578501D01*
X75678305Y-41691024D01*
X75690265Y-41907081D01*
X75692000Y-42238455D01*
X75692000Y-42947909D01*
X75109051Y-42953395D01*
X74731649Y-42938227D01*
X74462932Y-42888438D01*
X74371507Y-42845837D01*
X74280759Y-42734104D01*
X74222857Y-42535530D01*
X74187943Y-42212751D01*
X74182901Y-42130897D01*
X74167535Y-41818645D01*
X74173171Y-41638875D01*
X74211188Y-41555008D01*
X74292962Y-41530466D01*
X74370112Y-41529000D01*
X74492918Y-41538706D01*
X74559056Y-41594453D01*
X74586025Y-41736188D01*
X74591321Y-42003857D01*
X74591333Y-42034021D01*
X74601702Y-42333395D01*
X74641100Y-42509259D01*
X74721965Y-42606626D01*
X74755100Y-42626688D01*
X74918518Y-42701743D01*
X75023772Y-42682111D01*
X75135619Y-42581286D01*
X75233382Y-42374331D01*
X75268564Y-42013596D01*
X75268667Y-41988619D01*
X75274331Y-41724091D01*
X75304126Y-41587132D01*
X75377251Y-41536051D01*
X75480333Y-41529000D01*
X75583413Y-41535748D01*
G37*
X75583413Y-41535748D02*
X75646046Y-41578501D01*
X75678305Y-41691024D01*
X75690265Y-41907081D01*
X75692000Y-42238455D01*
X75692000Y-42947909D01*
X75109051Y-42953395D01*
X74731649Y-42938227D01*
X74462932Y-42888438D01*
X74371507Y-42845837D01*
X74280759Y-42734104D01*
X74222857Y-42535530D01*
X74187943Y-42212751D01*
X74182901Y-42130897D01*
X74167535Y-41818645D01*
X74173171Y-41638875D01*
X74211188Y-41555008D01*
X74292962Y-41530466D01*
X74370112Y-41529000D01*
X74492918Y-41538706D01*
X74559056Y-41594453D01*
X74586025Y-41736188D01*
X74591321Y-42003857D01*
X74591333Y-42034021D01*
X74601702Y-42333395D01*
X74641100Y-42509259D01*
X74721965Y-42606626D01*
X74755100Y-42626688D01*
X74918518Y-42701743D01*
X75023772Y-42682111D01*
X75135619Y-42581286D01*
X75233382Y-42374331D01*
X75268564Y-42013596D01*
X75268667Y-41988619D01*
X75274331Y-41724091D01*
X75304126Y-41587132D01*
X75377251Y-41536051D01*
X75480333Y-41529000D01*
X75583413Y-41535748D01*
G36*
X72577330Y-41044245D02*
G01*
X72635273Y-41147511D01*
X72644000Y-41306933D01*
X72644000Y-41592866D01*
X73028562Y-41549521D01*
X73396401Y-41567641D01*
X73654814Y-41714086D01*
X73798977Y-41984646D01*
X73829333Y-42248667D01*
X73791311Y-42562177D01*
X73663467Y-42773840D01*
X73425129Y-42898292D01*
X73055630Y-42950173D01*
X72833772Y-42953678D01*
X72220667Y-42947909D01*
X72220667Y-42313201D01*
X72662037Y-42313201D01*
X72764115Y-42536102D01*
X72784122Y-42559500D01*
X72938829Y-42690454D01*
X73094252Y-42693537D01*
X73242233Y-42626688D01*
X73379543Y-42469950D01*
X73417721Y-42245704D01*
X73360866Y-42020673D01*
X73213075Y-41861578D01*
X73194677Y-41852418D01*
X72968710Y-41819745D01*
X72788503Y-41913400D01*
X72678223Y-42091760D01*
X72662037Y-42313201D01*
X72220667Y-42313201D01*
X72220667Y-41021000D01*
X72432333Y-41021000D01*
X72577330Y-41044245D01*
G37*
X72577330Y-41044245D02*
X72635273Y-41147511D01*
X72644000Y-41306933D01*
X72644000Y-41592866D01*
X73028562Y-41549521D01*
X73396401Y-41567641D01*
X73654814Y-41714086D01*
X73798977Y-41984646D01*
X73829333Y-42248667D01*
X73791311Y-42562177D01*
X73663467Y-42773840D01*
X73425129Y-42898292D01*
X73055630Y-42950173D01*
X72833772Y-42953678D01*
X72220667Y-42947909D01*
X72220667Y-42313201D01*
X72662037Y-42313201D01*
X72764115Y-42536102D01*
X72784122Y-42559500D01*
X72938829Y-42690454D01*
X73094252Y-42693537D01*
X73242233Y-42626688D01*
X73379543Y-42469950D01*
X73417721Y-42245704D01*
X73360866Y-42020673D01*
X73213075Y-41861578D01*
X73194677Y-41852418D01*
X72968710Y-41819745D01*
X72788503Y-41913400D01*
X72678223Y-42091760D01*
X72662037Y-42313201D01*
X72220667Y-42313201D01*
X72220667Y-41021000D01*
X72432333Y-41021000D01*
X72577330Y-41044245D01*
G36*
X89543652Y-41544637D02*
G01*
X89577333Y-41567099D01*
X89542209Y-41685080D01*
X89449464Y-41913439D01*
X89318043Y-42211518D01*
X89166889Y-42538658D01*
X89014946Y-42854203D01*
X88881156Y-43117493D01*
X88784464Y-43287872D01*
X88759961Y-43321408D01*
X88594452Y-43421817D01*
X88367956Y-43472244D01*
X88151050Y-43466068D01*
X88014314Y-43396668D01*
X88011000Y-43391667D01*
X87997333Y-43253013D01*
X88092942Y-43166168D01*
X88188897Y-43171571D01*
X88371581Y-43184255D01*
X88518853Y-43108768D01*
X88561333Y-43012144D01*
X88528752Y-42882820D01*
X88443871Y-42652856D01*
X88340428Y-42407369D01*
X88173094Y-42028589D01*
X88069034Y-41778169D01*
X88023145Y-41629553D01*
X88030325Y-41556188D01*
X88085471Y-41531517D01*
X88171664Y-41529000D01*
X88298559Y-41559420D01*
X88409343Y-41673011D01*
X88532294Y-41903271D01*
X88582655Y-42015834D01*
X88794841Y-42502667D01*
X89012095Y-42015834D01*
X89157879Y-41726015D01*
X89282068Y-41572778D01*
X89403341Y-41529000D01*
X89543652Y-41544637D01*
G37*
X89543652Y-41544637D02*
X89577333Y-41567099D01*
X89542209Y-41685080D01*
X89449464Y-41913439D01*
X89318043Y-42211518D01*
X89166889Y-42538658D01*
X89014946Y-42854203D01*
X88881156Y-43117493D01*
X88784464Y-43287872D01*
X88759961Y-43321408D01*
X88594452Y-43421817D01*
X88367956Y-43472244D01*
X88151050Y-43466068D01*
X88014314Y-43396668D01*
X88011000Y-43391667D01*
X87997333Y-43253013D01*
X88092942Y-43166168D01*
X88188897Y-43171571D01*
X88371581Y-43184255D01*
X88518853Y-43108768D01*
X88561333Y-43012144D01*
X88528752Y-42882820D01*
X88443871Y-42652856D01*
X88340428Y-42407369D01*
X88173094Y-42028589D01*
X88069034Y-41778169D01*
X88023145Y-41629553D01*
X88030325Y-41556188D01*
X88085471Y-41531517D01*
X88171664Y-41529000D01*
X88298559Y-41559420D01*
X88409343Y-41673011D01*
X88532294Y-41903271D01*
X88582655Y-42015834D01*
X88794841Y-42502667D01*
X89012095Y-42015834D01*
X89157879Y-41726015D01*
X89282068Y-41572778D01*
X89403341Y-41529000D01*
X89543652Y-41544637D01*
G36*
X87714667Y-41549424D02*
G01*
X87714667Y-42305061D01*
X87710575Y-42674197D01*
X87692132Y-42916980D01*
X87650084Y-43076311D01*
X87575175Y-43195094D01*
X87506848Y-43268515D01*
X87329686Y-43404383D01*
X87115542Y-43461218D01*
X86893015Y-43466512D01*
X86618566Y-43452747D01*
X86398028Y-43429425D01*
X86338833Y-43417971D01*
X86208744Y-43350208D01*
X86221688Y-43226912D01*
X86262488Y-43155552D01*
X86358263Y-43090027D01*
X86533431Y-43123588D01*
X86568707Y-43136542D01*
X86851854Y-43185535D01*
X87094717Y-43125589D01*
X87253111Y-42975446D01*
X87290037Y-42830567D01*
X87211734Y-42772834D01*
X86976169Y-42771531D01*
X86906771Y-42778480D01*
X86639110Y-42790611D01*
X86458278Y-42738061D01*
X86314105Y-42626321D01*
X86141935Y-42364858D01*
X86127083Y-42218279D01*
X86515653Y-42218279D01*
X86592636Y-42387439D01*
X86677500Y-42453552D01*
X86860212Y-42533424D01*
X87022231Y-42508629D01*
X87127566Y-42457355D01*
X87266856Y-42303819D01*
X87284750Y-42103000D01*
X87185362Y-41921285D01*
X87090376Y-41857141D01*
X86868950Y-41821152D01*
X86681137Y-41895662D01*
X86554262Y-42041195D01*
X86515653Y-42218279D01*
X86127083Y-42218279D01*
X86112196Y-42071373D01*
X86225840Y-41797174D01*
X86297227Y-41717535D01*
X86429298Y-41620329D01*
X86597815Y-41566358D01*
X86852009Y-41544981D01*
X87101561Y-41543655D01*
X87714667Y-41549424D01*
G37*
X87714667Y-41549424D02*
X87714667Y-42305061D01*
X87710575Y-42674197D01*
X87692132Y-42916980D01*
X87650084Y-43076311D01*
X87575175Y-43195094D01*
X87506848Y-43268515D01*
X87329686Y-43404383D01*
X87115542Y-43461218D01*
X86893015Y-43466512D01*
X86618566Y-43452747D01*
X86398028Y-43429425D01*
X86338833Y-43417971D01*
X86208744Y-43350208D01*
X86221688Y-43226912D01*
X86262488Y-43155552D01*
X86358263Y-43090027D01*
X86533431Y-43123588D01*
X86568707Y-43136542D01*
X86851854Y-43185535D01*
X87094717Y-43125589D01*
X87253111Y-42975446D01*
X87290037Y-42830567D01*
X87211734Y-42772834D01*
X86976169Y-42771531D01*
X86906771Y-42778480D01*
X86639110Y-42790611D01*
X86458278Y-42738061D01*
X86314105Y-42626321D01*
X86141935Y-42364858D01*
X86127083Y-42218279D01*
X86515653Y-42218279D01*
X86592636Y-42387439D01*
X86677500Y-42453552D01*
X86860212Y-42533424D01*
X87022231Y-42508629D01*
X87127566Y-42457355D01*
X87266856Y-42303819D01*
X87284750Y-42103000D01*
X87185362Y-41921285D01*
X87090376Y-41857141D01*
X86868950Y-41821152D01*
X86681137Y-41895662D01*
X86554262Y-42041195D01*
X86515653Y-42218279D01*
X86127083Y-42218279D01*
X86112196Y-42071373D01*
X86225840Y-41797174D01*
X86297227Y-41717535D01*
X86429298Y-41620329D01*
X86597815Y-41566358D01*
X86852009Y-41544981D01*
X87101561Y-41543655D01*
X87714667Y-41549424D01*
G36*
X81324899Y-41534577D02*
G01*
X81365980Y-41569142D01*
X81359793Y-41659444D01*
X81300744Y-41832236D01*
X81183240Y-42114268D01*
X81060676Y-42396834D01*
X80895199Y-42757980D01*
X80738792Y-43066152D01*
X80611081Y-43284520D01*
X80541849Y-43370500D01*
X80373740Y-43440107D01*
X80148203Y-43472959D01*
X79937051Y-43465303D01*
X79812100Y-43413388D01*
X79808917Y-43408791D01*
X79802928Y-43278281D01*
X79908202Y-43182069D01*
X80067523Y-43171438D01*
X80072143Y-43172851D01*
X80261542Y-43164310D01*
X80339008Y-43106971D01*
X80374109Y-43011578D01*
X80349881Y-42854111D01*
X80258248Y-42603253D01*
X80139295Y-42332490D01*
X80003090Y-42025400D01*
X79899453Y-41776110D01*
X79845018Y-41625246D01*
X79840667Y-41603097D01*
X79912649Y-41545707D01*
X80035608Y-41529000D01*
X80165714Y-41561301D01*
X80268711Y-41682825D01*
X80374872Y-41930503D01*
X80382897Y-41952666D01*
X80480324Y-42198435D01*
X80565417Y-42370539D01*
X80601806Y-42417469D01*
X80665764Y-42368398D01*
X80764570Y-42199312D01*
X80857017Y-41993803D01*
X80980410Y-41722302D01*
X81087752Y-41579451D01*
X81207761Y-41530592D01*
X81242144Y-41529000D01*
X81324899Y-41534577D01*
G37*
X81324899Y-41534577D02*
X81365980Y-41569142D01*
X81359793Y-41659444D01*
X81300744Y-41832236D01*
X81183240Y-42114268D01*
X81060676Y-42396834D01*
X80895199Y-42757980D01*
X80738792Y-43066152D01*
X80611081Y-43284520D01*
X80541849Y-43370500D01*
X80373740Y-43440107D01*
X80148203Y-43472959D01*
X79937051Y-43465303D01*
X79812100Y-43413388D01*
X79808917Y-43408791D01*
X79802928Y-43278281D01*
X79908202Y-43182069D01*
X80067523Y-43171438D01*
X80072143Y-43172851D01*
X80261542Y-43164310D01*
X80339008Y-43106971D01*
X80374109Y-43011578D01*
X80349881Y-42854111D01*
X80258248Y-42603253D01*
X80139295Y-42332490D01*
X80003090Y-42025400D01*
X79899453Y-41776110D01*
X79845018Y-41625246D01*
X79840667Y-41603097D01*
X79912649Y-41545707D01*
X80035608Y-41529000D01*
X80165714Y-41561301D01*
X80268711Y-41682825D01*
X80374872Y-41930503D01*
X80382897Y-41952666D01*
X80480324Y-42198435D01*
X80565417Y-42370539D01*
X80601806Y-42417469D01*
X80665764Y-42368398D01*
X80764570Y-42199312D01*
X80857017Y-41993803D01*
X80980410Y-41722302D01*
X81087752Y-41579451D01*
X81207761Y-41530592D01*
X81242144Y-41529000D01*
X81324899Y-41534577D01*
D11*
%TO.C,R11*%
X122794000Y-150718000D02*
X122794000Y-152558000D01*
X122794000Y-152558000D02*
X126634000Y-152558000D01*
X126634000Y-152558000D02*
X126634000Y-150718000D01*
X126634000Y-150718000D02*
X122794000Y-150718000D01*
X121844000Y-151638000D02*
X122794000Y-151638000D01*
X127584000Y-151638000D02*
X126634000Y-151638000D01*
%TO.C,R10*%
X76850000Y-148240000D02*
X76850000Y-146400000D01*
X76850000Y-146400000D02*
X73010000Y-146400000D01*
X73010000Y-146400000D02*
X73010000Y-148240000D01*
X73010000Y-148240000D02*
X76850000Y-148240000D01*
X77800000Y-147320000D02*
X76850000Y-147320000D01*
X72060000Y-147320000D02*
X73010000Y-147320000D01*
%TO.C,R9*%
X76850000Y-145700000D02*
X76850000Y-143860000D01*
X76850000Y-143860000D02*
X73010000Y-143860000D01*
X73010000Y-143860000D02*
X73010000Y-145700000D01*
X73010000Y-145700000D02*
X76850000Y-145700000D01*
X77800000Y-144780000D02*
X76850000Y-144780000D01*
X72060000Y-144780000D02*
X73010000Y-144780000D01*
%TO.C,R8*%
X103490000Y-136240000D02*
X103490000Y-138080000D01*
X103490000Y-138080000D02*
X107330000Y-138080000D01*
X107330000Y-138080000D02*
X107330000Y-136240000D01*
X107330000Y-136240000D02*
X103490000Y-136240000D01*
X102540000Y-137160000D02*
X103490000Y-137160000D01*
X108280000Y-137160000D02*
X107330000Y-137160000D01*
%TO.C,R7*%
X76850000Y-131984000D02*
X76850000Y-130144000D01*
X76850000Y-130144000D02*
X73010000Y-130144000D01*
X73010000Y-130144000D02*
X73010000Y-131984000D01*
X73010000Y-131984000D02*
X76850000Y-131984000D01*
X77800000Y-131064000D02*
X76850000Y-131064000D01*
X72060000Y-131064000D02*
X73010000Y-131064000D01*
%TO.C,R6*%
X103490000Y-138780000D02*
X103490000Y-140620000D01*
X103490000Y-140620000D02*
X107330000Y-140620000D01*
X107330000Y-140620000D02*
X107330000Y-138780000D01*
X107330000Y-138780000D02*
X103490000Y-138780000D01*
X102540000Y-139700000D02*
X103490000Y-139700000D01*
X108280000Y-139700000D02*
X107330000Y-139700000D01*
%TO.C,R5*%
X73010000Y-136240000D02*
X73010000Y-138080000D01*
X73010000Y-138080000D02*
X76850000Y-138080000D01*
X76850000Y-138080000D02*
X76850000Y-136240000D01*
X76850000Y-136240000D02*
X73010000Y-136240000D01*
X72060000Y-137160000D02*
X73010000Y-137160000D01*
X77800000Y-137160000D02*
X76850000Y-137160000D01*
%TO.C,R4*%
X76850000Y-135540000D02*
X76850000Y-133700000D01*
X76850000Y-133700000D02*
X73010000Y-133700000D01*
X73010000Y-133700000D02*
X73010000Y-135540000D01*
X73010000Y-135540000D02*
X76850000Y-135540000D01*
X77800000Y-134620000D02*
X76850000Y-134620000D01*
X72060000Y-134620000D02*
X73010000Y-134620000D01*
%TO.C,R3*%
X91790000Y-108600000D02*
X93630000Y-108600000D01*
X93630000Y-108600000D02*
X93630000Y-104760000D01*
X93630000Y-104760000D02*
X91790000Y-104760000D01*
X91790000Y-104760000D02*
X91790000Y-108600000D01*
X92710000Y-109550000D02*
X92710000Y-108600000D01*
X92710000Y-103810000D02*
X92710000Y-104760000D01*
%TO.C,R2*%
X89250000Y-108600000D02*
X91090000Y-108600000D01*
X91090000Y-108600000D02*
X91090000Y-104760000D01*
X91090000Y-104760000D02*
X89250000Y-104760000D01*
X89250000Y-104760000D02*
X89250000Y-108600000D01*
X90170000Y-109550000D02*
X90170000Y-108600000D01*
X90170000Y-103810000D02*
X90170000Y-104760000D01*
%TO.C,R1*%
X94330000Y-108600000D02*
X96170000Y-108600000D01*
X96170000Y-108600000D02*
X96170000Y-104760000D01*
X96170000Y-104760000D02*
X94330000Y-104760000D01*
X94330000Y-104760000D02*
X94330000Y-108600000D01*
X95250000Y-109550000D02*
X95250000Y-108600000D01*
X95250000Y-103810000D02*
X95250000Y-104760000D01*
%TO.C,LED_\u00D6FE_1*%
X135455000Y-165290000D02*
X138545000Y-165290000D01*
X139500000Y-162730000D02*
G75*
G03*
X139500000Y-162730000I-2500000J0D01*
G01*
X136999538Y-159740000D02*
G75*
G02*
X138544830Y-165290000I462J-2990000D01*
G01*
X137000462Y-159740000D02*
G75*
G03*
X135455170Y-165290000I-462J-2990000D01*
G01*
%TO.C,LED_ZW\u00D6LFE_3*%
X18455000Y-111290000D02*
X21545000Y-111290000D01*
X22500000Y-108730000D02*
G75*
G03*
X22500000Y-108730000I-2500000J0D01*
G01*
X19999538Y-105740000D02*
G75*
G02*
X21544830Y-111290000I462J-2990000D01*
G01*
X20000462Y-105740000D02*
G75*
G03*
X18455170Y-111290000I-462J-2990000D01*
G01*
%TO.C,LED_ZW\u00D6LFE_2*%
X48455000Y-111290000D02*
X51545000Y-111290000D01*
X52500000Y-108730000D02*
G75*
G03*
X52500000Y-108730000I-2500000J0D01*
G01*
X49999538Y-105740000D02*
G75*
G02*
X51544830Y-111290000I462J-2990000D01*
G01*
X50000462Y-105740000D02*
G75*
G03*
X48455170Y-111290000I-462J-2990000D01*
G01*
%TO.C,LED_ZW\u00D6LFE_1*%
X78455000Y-111290000D02*
X81545000Y-111290000D01*
X82500000Y-108730000D02*
G75*
G03*
X82500000Y-108730000I-2500000J0D01*
G01*
X79999538Y-105740000D02*
G75*
G02*
X81544830Y-111290000I462J-2990000D01*
G01*
X80000462Y-105740000D02*
G75*
G03*
X78455170Y-111290000I-462J-2990000D01*
G01*
%TO.C,LED_ZWA_1*%
X87455000Y-75290000D02*
X90545000Y-75290000D01*
X91500000Y-72730000D02*
G75*
G03*
X91500000Y-72730000I-2500000J0D01*
G01*
X88999538Y-69740000D02*
G75*
G02*
X90544830Y-75290000I462J-2990000D01*
G01*
X89000462Y-69740000D02*
G75*
G03*
X87455170Y-75290000I-462J-2990000D01*
G01*
%TO.C,LED_ZEHNE_2*%
X102455000Y-147290000D02*
X105545000Y-147290000D01*
X106500000Y-144730000D02*
G75*
G03*
X106500000Y-144730000I-2500000J0D01*
G01*
X103999538Y-141740000D02*
G75*
G02*
X105544830Y-147290000I462J-2990000D01*
G01*
X104000462Y-141740000D02*
G75*
G03*
X102455170Y-147290000I-462J-2990000D01*
G01*
%TO.C,LED_ZEHNE_1*%
X138455000Y-147290000D02*
X141545000Y-147290000D01*
X142500000Y-144730000D02*
G75*
G03*
X142500000Y-144730000I-2500000J0D01*
G01*
X139999538Y-141740000D02*
G75*
G02*
X141544830Y-147290000I462J-2990000D01*
G01*
X140000462Y-141740000D02*
G75*
G03*
X138455170Y-147290000I-462J-2990000D01*
G01*
%TO.C,LED_VUABEI_3*%
X18455000Y-165290000D02*
X21545000Y-165290000D01*
X22500000Y-162730000D02*
G75*
G03*
X22500000Y-162730000I-2500000J0D01*
G01*
X19999538Y-159740000D02*
G75*
G02*
X21544830Y-165290000I462J-2990000D01*
G01*
X20000462Y-159740000D02*
G75*
G03*
X18455170Y-165290000I-462J-2990000D01*
G01*
%TO.C,LED_VUABEI_2*%
X48455000Y-165290000D02*
X51545000Y-165290000D01*
X52500000Y-162730000D02*
G75*
G03*
X52500000Y-162730000I-2500000J0D01*
G01*
X49999538Y-159740000D02*
G75*
G02*
X51544830Y-165290000I462J-2990000D01*
G01*
X50000462Y-159740000D02*
G75*
G03*
X48455170Y-165290000I-462J-2990000D01*
G01*
%TO.C,LED_VUABEI_1*%
X78455000Y-165290000D02*
X81545000Y-165290000D01*
X82500000Y-162730000D02*
G75*
G03*
X82500000Y-162730000I-2500000J0D01*
G01*
X79999538Y-159740000D02*
G75*
G02*
X81544830Y-165290000I462J-2990000D01*
G01*
X80000462Y-159740000D02*
G75*
G03*
X78455170Y-165290000I-462J-2990000D01*
G01*
%TO.C,LED_VIERTL_3*%
X18455000Y-57290000D02*
X21545000Y-57290000D01*
X22500000Y-54730000D02*
G75*
G03*
X22500000Y-54730000I-2500000J0D01*
G01*
X19999538Y-51740000D02*
G75*
G02*
X21544830Y-57290000I462J-2990000D01*
G01*
X20000462Y-51740000D02*
G75*
G03*
X18455170Y-57290000I-462J-2990000D01*
G01*
%TO.C,LED_VIERTL_2*%
X48455000Y-57290000D02*
X51545000Y-57290000D01*
X52500000Y-54730000D02*
G75*
G03*
X52500000Y-54730000I-2500000J0D01*
G01*
X49999538Y-51740000D02*
G75*
G02*
X51544830Y-57290000I462J-2990000D01*
G01*
X50000462Y-51740000D02*
G75*
G03*
X48455170Y-57290000I-462J-2990000D01*
G01*
%TO.C,LED_VIERTL_1*%
X78455000Y-57290000D02*
X81545000Y-57290000D01*
X82500000Y-54730000D02*
G75*
G03*
X82500000Y-54730000I-2500000J0D01*
G01*
X79999538Y-51740000D02*
G75*
G02*
X81544830Y-57290000I462J-2990000D01*
G01*
X80000462Y-51740000D02*
G75*
G03*
X78455170Y-57290000I-462J-2990000D01*
G01*
%TO.C,LED_VIERE_2*%
X102455000Y-93290000D02*
X105545000Y-93290000D01*
X106500000Y-90730000D02*
G75*
G03*
X106500000Y-90730000I-2500000J0D01*
G01*
X103999538Y-87740000D02*
G75*
G02*
X105544830Y-93290000I462J-2990000D01*
G01*
X104000462Y-87740000D02*
G75*
G03*
X102455170Y-93290000I-462J-2990000D01*
G01*
%TO.C,LED_VIERE_1*%
X138455000Y-93290000D02*
X141545000Y-93290000D01*
X142500000Y-90730000D02*
G75*
G03*
X142500000Y-90730000I-2500000J0D01*
G01*
X139999538Y-87740000D02*
G75*
G02*
X141544830Y-93290000I462J-2990000D01*
G01*
X140000462Y-87740000D02*
G75*
G03*
X138455170Y-93290000I-462J-2990000D01*
G01*
%TO.C,LED_SIEBN_2*%
X22455000Y-147290000D02*
X25545000Y-147290000D01*
X26500000Y-144730000D02*
G75*
G03*
X26500000Y-144730000I-2500000J0D01*
G01*
X23999538Y-141740000D02*
G75*
G02*
X25544830Y-147290000I462J-2990000D01*
G01*
X24000462Y-141740000D02*
G75*
G03*
X22455170Y-147290000I-462J-2990000D01*
G01*
%TO.C,LED_SIEBN_1*%
X58455000Y-147290000D02*
X61545000Y-147290000D01*
X62500000Y-144730000D02*
G75*
G03*
X62500000Y-144730000I-2500000J0D01*
G01*
X59999538Y-141740000D02*
G75*
G02*
X61544830Y-147290000I462J-2990000D01*
G01*
X60000462Y-141740000D02*
G75*
G03*
X58455170Y-147290000I-462J-2990000D01*
G01*
%TO.C,LED_SEXE_2*%
X142455000Y-111290000D02*
X145545000Y-111290000D01*
X146500000Y-108730000D02*
G75*
G03*
X146500000Y-108730000I-2500000J0D01*
G01*
X143999538Y-105740000D02*
G75*
G02*
X145544830Y-111290000I462J-2990000D01*
G01*
X144000462Y-105740000D02*
G75*
G03*
X142455170Y-111290000I-462J-2990000D01*
G01*
%TO.C,LED_SEXE_1*%
X114455000Y-111290000D02*
X117545000Y-111290000D01*
X118500000Y-108730000D02*
G75*
G03*
X118500000Y-108730000I-2500000J0D01*
G01*
X115999538Y-105740000D02*
G75*
G02*
X117544830Y-111290000I462J-2990000D01*
G01*
X116000462Y-105740000D02*
G75*
G03*
X114455170Y-111290000I-462J-2990000D01*
G01*
%TO.C,LED_SCHO_2*%
X114455000Y-39290000D02*
X117545000Y-39290000D01*
X118500000Y-36730000D02*
G75*
G03*
X118500000Y-36730000I-2500000J0D01*
G01*
X115999538Y-33740000D02*
G75*
G02*
X117544830Y-39290000I462J-2990000D01*
G01*
X116000462Y-33740000D02*
G75*
G03*
X114455170Y-39290000I-462J-2990000D01*
G01*
%TO.C,LED_SCHO_1*%
X142455000Y-39290000D02*
X145545000Y-39290000D01*
X146500000Y-36730000D02*
G75*
G03*
X146500000Y-36730000I-2500000J0D01*
G01*
X143999538Y-33740000D02*
G75*
G02*
X145544830Y-39290000I462J-2990000D01*
G01*
X144000462Y-33740000D02*
G75*
G03*
X142455170Y-39290000I-462J-2990000D01*
G01*
%TO.C,LED_OCHTE_2*%
X102455000Y-129290000D02*
X105545000Y-129290000D01*
X106500000Y-126730000D02*
G75*
G03*
X106500000Y-126730000I-2500000J0D01*
G01*
X103999538Y-123740000D02*
G75*
G02*
X105544830Y-129290000I462J-2990000D01*
G01*
X104000462Y-123740000D02*
G75*
G03*
X102455170Y-129290000I-462J-2990000D01*
G01*
%TO.C,LED_OCHTE_1*%
X138455000Y-129290000D02*
X141545000Y-129290000D01*
X142500000Y-126730000D02*
G75*
G03*
X142500000Y-126730000I-2500000J0D01*
G01*
X139999538Y-123740000D02*
G75*
G02*
X141544830Y-129290000I462J-2990000D01*
G01*
X140000462Y-123740000D02*
G75*
G03*
X138455170Y-129290000I-462J-2990000D01*
G01*
%TO.C,LED_NAINE_2*%
X22455000Y-129290000D02*
X25545000Y-129290000D01*
X26500000Y-126730000D02*
G75*
G03*
X26500000Y-126730000I-2500000J0D01*
G01*
X23999538Y-123740000D02*
G75*
G02*
X25544830Y-129290000I462J-2990000D01*
G01*
X24000462Y-123740000D02*
G75*
G03*
X22455170Y-129290000I-462J-2990000D01*
G01*
%TO.C,LED_NAINE_1*%
X58455000Y-129290000D02*
X61545000Y-129290000D01*
X62500000Y-126730000D02*
G75*
G03*
X62500000Y-126730000I-2500000J0D01*
G01*
X59999538Y-123740000D02*
G75*
G02*
X61544830Y-129290000I462J-2990000D01*
G01*
X60000462Y-123740000D02*
G75*
G03*
X58455170Y-129290000I-462J-2990000D01*
G01*
%TO.C,LED_HOLBA_2*%
X22455000Y-39290000D02*
X25545000Y-39290000D01*
X26500000Y-36730000D02*
G75*
G03*
X26500000Y-36730000I-2500000J0D01*
G01*
X23999538Y-33740000D02*
G75*
G02*
X25544830Y-39290000I462J-2990000D01*
G01*
X24000462Y-33740000D02*
G75*
G03*
X22455170Y-39290000I-462J-2990000D01*
G01*
%TO.C,LED_HOLBA_1*%
X58455000Y-39290000D02*
X61545000Y-39290000D01*
X62500000Y-36730000D02*
G75*
G03*
X62500000Y-36730000I-2500000J0D01*
G01*
X59999538Y-33740000D02*
G75*
G02*
X61544830Y-39290000I462J-2990000D01*
G01*
X60000462Y-33740000D02*
G75*
G03*
X58455170Y-39290000I-462J-2990000D01*
G01*
%TO.C,LED_GLEI_2*%
X18455000Y-21290000D02*
X21545000Y-21290000D01*
X22500000Y-18730000D02*
G75*
G03*
X22500000Y-18730000I-2500000J0D01*
G01*
X19999538Y-15740000D02*
G75*
G02*
X21544830Y-21290000I462J-2990000D01*
G01*
X20000462Y-15740000D02*
G75*
G03*
X18455170Y-21290000I-462J-2990000D01*
G01*
%TO.C,LED_GLEI_1*%
X46455000Y-21290000D02*
X49545000Y-21290000D01*
X50500000Y-18730000D02*
G75*
G03*
X50500000Y-18730000I-2500000J0D01*
G01*
X47999538Y-15740000D02*
G75*
G02*
X49544830Y-21290000I462J-2990000D01*
G01*
X48000462Y-15740000D02*
G75*
G03*
X46455170Y-21290000I-462J-2990000D01*
G01*
%TO.C,LED_F\u00DCNFE_2*%
X22455000Y-93290000D02*
X25545000Y-93290000D01*
X26500000Y-90730000D02*
G75*
G03*
X26500000Y-90730000I-2500000J0D01*
G01*
X23999538Y-87740000D02*
G75*
G02*
X25544830Y-93290000I462J-2990000D01*
G01*
X24000462Y-87740000D02*
G75*
G03*
X22455170Y-93290000I-462J-2990000D01*
G01*
%TO.C,LED_F\u00DCNFE_1*%
X58455000Y-93290000D02*
X61545000Y-93290000D01*
X62500000Y-90730000D02*
G75*
G03*
X62500000Y-90730000I-2500000J0D01*
G01*
X59999538Y-87740000D02*
G75*
G02*
X61544830Y-93290000I462J-2990000D01*
G01*
X60000462Y-87740000D02*
G75*
G03*
X58455170Y-93290000I-462J-2990000D01*
G01*
%TO.C,LED_ESIS_2*%
X96455000Y-21290000D02*
X99545000Y-21290000D01*
X100500000Y-18730000D02*
G75*
G03*
X100500000Y-18730000I-2500000J0D01*
G01*
X97999538Y-15740000D02*
G75*
G02*
X99544830Y-21290000I462J-2990000D01*
G01*
X98000462Y-15740000D02*
G75*
G03*
X96455170Y-21290000I-462J-2990000D01*
G01*
%TO.C,LED_ESIS_1*%
X144455000Y-21290000D02*
X147545000Y-21290000D01*
X148500000Y-18730000D02*
G75*
G03*
X148500000Y-18730000I-2500000J0D01*
G01*
X145999538Y-15740000D02*
G75*
G02*
X147544830Y-21290000I462J-2990000D01*
G01*
X146000462Y-15740000D02*
G75*
G03*
X144455170Y-21290000I-462J-2990000D01*
G01*
%TO.C,LED_DREI_2*%
X18455000Y-75290000D02*
X21545000Y-75290000D01*
X22500000Y-72730000D02*
G75*
G03*
X22500000Y-72730000I-2500000J0D01*
G01*
X19999538Y-69740000D02*
G75*
G02*
X21544830Y-75290000I462J-2990000D01*
G01*
X20000462Y-69740000D02*
G75*
G03*
X18455170Y-75290000I-462J-2990000D01*
G01*
%TO.C,LED_DREI_1*%
X46455000Y-75290000D02*
X49545000Y-75290000D01*
X50500000Y-72730000D02*
G75*
G03*
X50500000Y-72730000I-2500000J0D01*
G01*
X47999538Y-69740000D02*
G75*
G02*
X49544830Y-75290000I462J-2990000D01*
G01*
X48000462Y-69740000D02*
G75*
G03*
X46455170Y-75290000I-462J-2990000D01*
G01*
%TO.C,LED_DREI4TL_2*%
X114455000Y-57290000D02*
X117545000Y-57290000D01*
X118500000Y-54730000D02*
G75*
G03*
X118500000Y-54730000I-2500000J0D01*
G01*
X115999538Y-51740000D02*
G75*
G02*
X117544830Y-57290000I462J-2990000D01*
G01*
X116000462Y-51740000D02*
G75*
G03*
X114455170Y-57290000I-462J-2990000D01*
G01*
%TO.C,LED_DREI4TL_1*%
X142455000Y-57290000D02*
X145545000Y-57290000D01*
X146500000Y-54730000D02*
G75*
G03*
X146500000Y-54730000I-2500000J0D01*
G01*
X143999538Y-51740000D02*
G75*
G02*
X145544830Y-57290000I462J-2990000D01*
G01*
X144000462Y-51740000D02*
G75*
G03*
X142455170Y-57290000I-462J-2990000D01*
G01*
%TO.C,LED_ANS_1*%
X135455000Y-75290000D02*
X138545000Y-75290000D01*
X139500000Y-72730000D02*
G75*
G03*
X139500000Y-72730000I-2500000J0D01*
G01*
X136999538Y-69740000D02*
G75*
G02*
X138544830Y-75290000I462J-2990000D01*
G01*
X137000462Y-69740000D02*
G75*
G03*
X135455170Y-75290000I-462J-2990000D01*
G01*
%TO.C,DCF2*%
X109474000Y-156718000D02*
X133604000Y-156718000D01*
X133604000Y-156718000D02*
X133604000Y-144018000D01*
X133604000Y-144018000D02*
X109474000Y-144018000D01*
X109474000Y-144018000D02*
X109474000Y-156718000D01*
%TO.C,DCF1*%
X128524000Y-149098000D02*
X128524000Y-161798000D01*
X108204000Y-149098000D02*
X128524000Y-149098000D01*
X108204000Y-161798000D02*
X108204000Y-149098000D01*
X128524000Y-161798000D02*
X108204000Y-161798000D01*
X119634000Y-157758000D02*
X119634000Y-160758000D01*
X117264000Y-160758000D02*
X117264000Y-157758000D01*
X127084000Y-160758000D02*
X117264000Y-160758000D01*
X127084000Y-157758000D02*
X127084000Y-160758000D01*
X117264000Y-157758000D02*
X127084000Y-157758000D01*
%TO.C,C1*%
X138994000Y-154218000D02*
G75*
G03*
X138994000Y-154218000I-4120000J0D01*
G01*
X130794000Y-154218000D02*
X138954000Y-154218000D01*
X130794000Y-154178000D02*
X138954000Y-154178000D01*
X130794000Y-154138000D02*
X138954000Y-154138000D01*
X130795000Y-154098000D02*
X138953000Y-154098000D01*
X130797000Y-154058000D02*
X138951000Y-154058000D01*
X130798000Y-154018000D02*
X138950000Y-154018000D01*
X130800000Y-153978000D02*
X138948000Y-153978000D01*
X130803000Y-153938000D02*
X138945000Y-153938000D01*
X130806000Y-153898000D02*
X138942000Y-153898000D01*
X130809000Y-153858000D02*
X138939000Y-153858000D01*
X130813000Y-153818000D02*
X138935000Y-153818000D01*
X130817000Y-153778000D02*
X138931000Y-153778000D01*
X130822000Y-153738000D02*
X138926000Y-153738000D01*
X130826000Y-153698000D02*
X138922000Y-153698000D01*
X130832000Y-153658000D02*
X138916000Y-153658000D01*
X130837000Y-153618000D02*
X138911000Y-153618000D01*
X130844000Y-153578000D02*
X138904000Y-153578000D01*
X130850000Y-153538000D02*
X138898000Y-153538000D01*
X130857000Y-153497000D02*
X138891000Y-153497000D01*
X130864000Y-153457000D02*
X138884000Y-153457000D01*
X130872000Y-153417000D02*
X138876000Y-153417000D01*
X130880000Y-153377000D02*
X138868000Y-153377000D01*
X130889000Y-153337000D02*
X138859000Y-153337000D01*
X130898000Y-153297000D02*
X138850000Y-153297000D01*
X130907000Y-153257000D02*
X138841000Y-153257000D01*
X130917000Y-153217000D02*
X138831000Y-153217000D01*
X130927000Y-153177000D02*
X138821000Y-153177000D01*
X130938000Y-153137000D02*
X138810000Y-153137000D01*
X130949000Y-153097000D02*
X138799000Y-153097000D01*
X130960000Y-153057000D02*
X138788000Y-153057000D01*
X130972000Y-153017000D02*
X138776000Y-153017000D01*
X130985000Y-152977000D02*
X138763000Y-152977000D01*
X130997000Y-152937000D02*
X138751000Y-152937000D01*
X131011000Y-152897000D02*
X138737000Y-152897000D01*
X131024000Y-152857000D02*
X138724000Y-152857000D01*
X131039000Y-152817000D02*
X138709000Y-152817000D01*
X131053000Y-152777000D02*
X138695000Y-152777000D01*
X131069000Y-152737000D02*
X133834000Y-152737000D01*
X135914000Y-152737000D02*
X138679000Y-152737000D01*
X131084000Y-152697000D02*
X133834000Y-152697000D01*
X135914000Y-152697000D02*
X138664000Y-152697000D01*
X131100000Y-152657000D02*
X133834000Y-152657000D01*
X135914000Y-152657000D02*
X138648000Y-152657000D01*
X131117000Y-152617000D02*
X133834000Y-152617000D01*
X135914000Y-152617000D02*
X138631000Y-152617000D01*
X131134000Y-152577000D02*
X133834000Y-152577000D01*
X135914000Y-152577000D02*
X138614000Y-152577000D01*
X131152000Y-152537000D02*
X133834000Y-152537000D01*
X135914000Y-152537000D02*
X138596000Y-152537000D01*
X131170000Y-152497000D02*
X133834000Y-152497000D01*
X135914000Y-152497000D02*
X138578000Y-152497000D01*
X131188000Y-152457000D02*
X133834000Y-152457000D01*
X135914000Y-152457000D02*
X138560000Y-152457000D01*
X131208000Y-152417000D02*
X133834000Y-152417000D01*
X135914000Y-152417000D02*
X138540000Y-152417000D01*
X131227000Y-152377000D02*
X133834000Y-152377000D01*
X135914000Y-152377000D02*
X138521000Y-152377000D01*
X131247000Y-152337000D02*
X133834000Y-152337000D01*
X135914000Y-152337000D02*
X138501000Y-152337000D01*
X131268000Y-152297000D02*
X133834000Y-152297000D01*
X135914000Y-152297000D02*
X138480000Y-152297000D01*
X131290000Y-152257000D02*
X133834000Y-152257000D01*
X135914000Y-152257000D02*
X138458000Y-152257000D01*
X131312000Y-152217000D02*
X133834000Y-152217000D01*
X135914000Y-152217000D02*
X138436000Y-152217000D01*
X131334000Y-152177000D02*
X133834000Y-152177000D01*
X135914000Y-152177000D02*
X138414000Y-152177000D01*
X131357000Y-152137000D02*
X133834000Y-152137000D01*
X135914000Y-152137000D02*
X138391000Y-152137000D01*
X131381000Y-152097000D02*
X133834000Y-152097000D01*
X135914000Y-152097000D02*
X138367000Y-152097000D01*
X131405000Y-152057000D02*
X133834000Y-152057000D01*
X135914000Y-152057000D02*
X138343000Y-152057000D01*
X131430000Y-152017000D02*
X133834000Y-152017000D01*
X135914000Y-152017000D02*
X138318000Y-152017000D01*
X131456000Y-151977000D02*
X133834000Y-151977000D01*
X135914000Y-151977000D02*
X138292000Y-151977000D01*
X131482000Y-151937000D02*
X133834000Y-151937000D01*
X135914000Y-151937000D02*
X138266000Y-151937000D01*
X131509000Y-151897000D02*
X133834000Y-151897000D01*
X135914000Y-151897000D02*
X138239000Y-151897000D01*
X131536000Y-151857000D02*
X133834000Y-151857000D01*
X135914000Y-151857000D02*
X138212000Y-151857000D01*
X131565000Y-151817000D02*
X133834000Y-151817000D01*
X135914000Y-151817000D02*
X138183000Y-151817000D01*
X131594000Y-151777000D02*
X133834000Y-151777000D01*
X135914000Y-151777000D02*
X138154000Y-151777000D01*
X131624000Y-151737000D02*
X133834000Y-151737000D01*
X135914000Y-151737000D02*
X138124000Y-151737000D01*
X131654000Y-151697000D02*
X133834000Y-151697000D01*
X135914000Y-151697000D02*
X138094000Y-151697000D01*
X131685000Y-151657000D02*
X133834000Y-151657000D01*
X135914000Y-151657000D02*
X138063000Y-151657000D01*
X131718000Y-151617000D02*
X133834000Y-151617000D01*
X135914000Y-151617000D02*
X138030000Y-151617000D01*
X131750000Y-151577000D02*
X133834000Y-151577000D01*
X135914000Y-151577000D02*
X137998000Y-151577000D01*
X131784000Y-151537000D02*
X133834000Y-151537000D01*
X135914000Y-151537000D02*
X137964000Y-151537000D01*
X131819000Y-151497000D02*
X133834000Y-151497000D01*
X135914000Y-151497000D02*
X137929000Y-151497000D01*
X131855000Y-151457000D02*
X133834000Y-151457000D01*
X135914000Y-151457000D02*
X137893000Y-151457000D01*
X131891000Y-151417000D02*
X133834000Y-151417000D01*
X135914000Y-151417000D02*
X137857000Y-151417000D01*
X131929000Y-151377000D02*
X133834000Y-151377000D01*
X135914000Y-151377000D02*
X137819000Y-151377000D01*
X131967000Y-151337000D02*
X133834000Y-151337000D01*
X135914000Y-151337000D02*
X137781000Y-151337000D01*
X132007000Y-151297000D02*
X133834000Y-151297000D01*
X135914000Y-151297000D02*
X137741000Y-151297000D01*
X132048000Y-151257000D02*
X133834000Y-151257000D01*
X135914000Y-151257000D02*
X137700000Y-151257000D01*
X132090000Y-151217000D02*
X133834000Y-151217000D01*
X135914000Y-151217000D02*
X137658000Y-151217000D01*
X132133000Y-151177000D02*
X133834000Y-151177000D01*
X135914000Y-151177000D02*
X137615000Y-151177000D01*
X132177000Y-151137000D02*
X133834000Y-151137000D01*
X135914000Y-151137000D02*
X137571000Y-151137000D01*
X132223000Y-151097000D02*
X133834000Y-151097000D01*
X135914000Y-151097000D02*
X137525000Y-151097000D01*
X132270000Y-151057000D02*
X133834000Y-151057000D01*
X135914000Y-151057000D02*
X137478000Y-151057000D01*
X132318000Y-151017000D02*
X133834000Y-151017000D01*
X135914000Y-151017000D02*
X137430000Y-151017000D01*
X132369000Y-150977000D02*
X133834000Y-150977000D01*
X135914000Y-150977000D02*
X137379000Y-150977000D01*
X132420000Y-150937000D02*
X133834000Y-150937000D01*
X135914000Y-150937000D02*
X137328000Y-150937000D01*
X132474000Y-150897000D02*
X133834000Y-150897000D01*
X135914000Y-150897000D02*
X137274000Y-150897000D01*
X132529000Y-150857000D02*
X133834000Y-150857000D01*
X135914000Y-150857000D02*
X137219000Y-150857000D01*
X132587000Y-150817000D02*
X133834000Y-150817000D01*
X135914000Y-150817000D02*
X137161000Y-150817000D01*
X132646000Y-150777000D02*
X133834000Y-150777000D01*
X135914000Y-150777000D02*
X137102000Y-150777000D01*
X132708000Y-150737000D02*
X133834000Y-150737000D01*
X135914000Y-150737000D02*
X137040000Y-150737000D01*
X132772000Y-150697000D02*
X133834000Y-150697000D01*
X135914000Y-150697000D02*
X136976000Y-150697000D01*
X132840000Y-150657000D02*
X136908000Y-150657000D01*
X132910000Y-150617000D02*
X136838000Y-150617000D01*
X132984000Y-150577000D02*
X136764000Y-150577000D01*
X133061000Y-150537000D02*
X136687000Y-150537000D01*
X133143000Y-150497000D02*
X136605000Y-150497000D01*
X133229000Y-150457000D02*
X136519000Y-150457000D01*
X133322000Y-150417000D02*
X136426000Y-150417000D01*
X133421000Y-150377000D02*
X136327000Y-150377000D01*
X133528000Y-150337000D02*
X136220000Y-150337000D01*
X133645000Y-150297000D02*
X136103000Y-150297000D01*
X133776000Y-150257000D02*
X135972000Y-150257000D01*
X133926000Y-150217000D02*
X135822000Y-150217000D01*
X134106000Y-150177000D02*
X135642000Y-150177000D01*
X134341000Y-150137000D02*
X135407000Y-150137000D01*
X132559000Y-158627698D02*
X132559000Y-157827698D01*
X132159000Y-158227698D02*
X132959000Y-158227698D01*
%TO.C,ArduinoNanoV3*%
X83820000Y-118110000D02*
X83820000Y-115570000D01*
X83820000Y-115570000D02*
X81150000Y-115570000D01*
X81150000Y-118110000D02*
X81150000Y-156340000D01*
X81150000Y-112900000D02*
X81150000Y-115570000D01*
X96520000Y-115570000D02*
X99190000Y-115570000D01*
X96520000Y-115570000D02*
X96520000Y-153670000D01*
X96520000Y-153670000D02*
X99190000Y-153670000D01*
X83820000Y-118110000D02*
X81150000Y-118110000D01*
X83820000Y-118110000D02*
X83820000Y-153670000D01*
X83820000Y-153670000D02*
X81150000Y-153670000D01*
X81150000Y-156340000D02*
X99190000Y-156340000D01*
X99190000Y-156340000D02*
X99190000Y-112900000D01*
X99190000Y-112900000D02*
X81150000Y-112900000D01*
%TO.C,R11*%
D13*
X124071142Y-152090380D02*
X123737809Y-151614190D01*
X123499714Y-152090380D02*
X123499714Y-151090380D01*
X123880666Y-151090380D01*
X123975904Y-151138000D01*
X124023523Y-151185619D01*
X124071142Y-151280857D01*
X124071142Y-151423714D01*
X124023523Y-151518952D01*
X123975904Y-151566571D01*
X123880666Y-151614190D01*
X123499714Y-151614190D01*
X125023523Y-152090380D02*
X124452095Y-152090380D01*
X124737809Y-152090380D02*
X124737809Y-151090380D01*
X124642571Y-151233238D01*
X124547333Y-151328476D01*
X124452095Y-151376095D01*
X125975904Y-152090380D02*
X125404476Y-152090380D01*
X125690190Y-152090380D02*
X125690190Y-151090380D01*
X125594952Y-151233238D01*
X125499714Y-151328476D01*
X125404476Y-151376095D01*
%TO.C,R10*%
X74287142Y-147772380D02*
X73953809Y-147296190D01*
X73715714Y-147772380D02*
X73715714Y-146772380D01*
X74096666Y-146772380D01*
X74191904Y-146820000D01*
X74239523Y-146867619D01*
X74287142Y-146962857D01*
X74287142Y-147105714D01*
X74239523Y-147200952D01*
X74191904Y-147248571D01*
X74096666Y-147296190D01*
X73715714Y-147296190D01*
X75239523Y-147772380D02*
X74668095Y-147772380D01*
X74953809Y-147772380D02*
X74953809Y-146772380D01*
X74858571Y-146915238D01*
X74763333Y-147010476D01*
X74668095Y-147058095D01*
X75858571Y-146772380D02*
X75953809Y-146772380D01*
X76049047Y-146820000D01*
X76096666Y-146867619D01*
X76144285Y-146962857D01*
X76191904Y-147153333D01*
X76191904Y-147391428D01*
X76144285Y-147581904D01*
X76096666Y-147677142D01*
X76049047Y-147724761D01*
X75953809Y-147772380D01*
X75858571Y-147772380D01*
X75763333Y-147724761D01*
X75715714Y-147677142D01*
X75668095Y-147581904D01*
X75620476Y-147391428D01*
X75620476Y-147153333D01*
X75668095Y-146962857D01*
X75715714Y-146867619D01*
X75763333Y-146820000D01*
X75858571Y-146772380D01*
%TO.C,R9*%
X74763333Y-145359380D02*
X74430000Y-144883190D01*
X74191904Y-145359380D02*
X74191904Y-144359380D01*
X74572857Y-144359380D01*
X74668095Y-144407000D01*
X74715714Y-144454619D01*
X74763333Y-144549857D01*
X74763333Y-144692714D01*
X74715714Y-144787952D01*
X74668095Y-144835571D01*
X74572857Y-144883190D01*
X74191904Y-144883190D01*
X75239523Y-145359380D02*
X75430000Y-145359380D01*
X75525238Y-145311761D01*
X75572857Y-145264142D01*
X75668095Y-145121285D01*
X75715714Y-144930809D01*
X75715714Y-144549857D01*
X75668095Y-144454619D01*
X75620476Y-144407000D01*
X75525238Y-144359380D01*
X75334761Y-144359380D01*
X75239523Y-144407000D01*
X75191904Y-144454619D01*
X75144285Y-144549857D01*
X75144285Y-144787952D01*
X75191904Y-144883190D01*
X75239523Y-144930809D01*
X75334761Y-144978428D01*
X75525238Y-144978428D01*
X75620476Y-144930809D01*
X75668095Y-144883190D01*
X75715714Y-144787952D01*
%TO.C,R8*%
X105243333Y-137612380D02*
X104910000Y-137136190D01*
X104671904Y-137612380D02*
X104671904Y-136612380D01*
X105052857Y-136612380D01*
X105148095Y-136660000D01*
X105195714Y-136707619D01*
X105243333Y-136802857D01*
X105243333Y-136945714D01*
X105195714Y-137040952D01*
X105148095Y-137088571D01*
X105052857Y-137136190D01*
X104671904Y-137136190D01*
X105814761Y-137040952D02*
X105719523Y-136993333D01*
X105671904Y-136945714D01*
X105624285Y-136850476D01*
X105624285Y-136802857D01*
X105671904Y-136707619D01*
X105719523Y-136660000D01*
X105814761Y-136612380D01*
X106005238Y-136612380D01*
X106100476Y-136660000D01*
X106148095Y-136707619D01*
X106195714Y-136802857D01*
X106195714Y-136850476D01*
X106148095Y-136945714D01*
X106100476Y-136993333D01*
X106005238Y-137040952D01*
X105814761Y-137040952D01*
X105719523Y-137088571D01*
X105671904Y-137136190D01*
X105624285Y-137231428D01*
X105624285Y-137421904D01*
X105671904Y-137517142D01*
X105719523Y-137564761D01*
X105814761Y-137612380D01*
X106005238Y-137612380D01*
X106100476Y-137564761D01*
X106148095Y-137517142D01*
X106195714Y-137421904D01*
X106195714Y-137231428D01*
X106148095Y-137136190D01*
X106100476Y-137088571D01*
X106005238Y-137040952D01*
%TO.C,R7*%
X74636333Y-131516380D02*
X74303000Y-131040190D01*
X74064904Y-131516380D02*
X74064904Y-130516380D01*
X74445857Y-130516380D01*
X74541095Y-130564000D01*
X74588714Y-130611619D01*
X74636333Y-130706857D01*
X74636333Y-130849714D01*
X74588714Y-130944952D01*
X74541095Y-130992571D01*
X74445857Y-131040190D01*
X74064904Y-131040190D01*
X74969666Y-130516380D02*
X75636333Y-130516380D01*
X75207761Y-131516380D01*
%TO.C,R6*%
X105243333Y-140152380D02*
X104910000Y-139676190D01*
X104671904Y-140152380D02*
X104671904Y-139152380D01*
X105052857Y-139152380D01*
X105148095Y-139200000D01*
X105195714Y-139247619D01*
X105243333Y-139342857D01*
X105243333Y-139485714D01*
X105195714Y-139580952D01*
X105148095Y-139628571D01*
X105052857Y-139676190D01*
X104671904Y-139676190D01*
X106100476Y-139152380D02*
X105910000Y-139152380D01*
X105814761Y-139200000D01*
X105767142Y-139247619D01*
X105671904Y-139390476D01*
X105624285Y-139580952D01*
X105624285Y-139961904D01*
X105671904Y-140057142D01*
X105719523Y-140104761D01*
X105814761Y-140152380D01*
X106005238Y-140152380D01*
X106100476Y-140104761D01*
X106148095Y-140057142D01*
X106195714Y-139961904D01*
X106195714Y-139723809D01*
X106148095Y-139628571D01*
X106100476Y-139580952D01*
X106005238Y-139533333D01*
X105814761Y-139533333D01*
X105719523Y-139580952D01*
X105671904Y-139628571D01*
X105624285Y-139723809D01*
%TO.C,R5*%
X74763333Y-137612380D02*
X74430000Y-137136190D01*
X74191904Y-137612380D02*
X74191904Y-136612380D01*
X74572857Y-136612380D01*
X74668095Y-136660000D01*
X74715714Y-136707619D01*
X74763333Y-136802857D01*
X74763333Y-136945714D01*
X74715714Y-137040952D01*
X74668095Y-137088571D01*
X74572857Y-137136190D01*
X74191904Y-137136190D01*
X75668095Y-136612380D02*
X75191904Y-136612380D01*
X75144285Y-137088571D01*
X75191904Y-137040952D01*
X75287142Y-136993333D01*
X75525238Y-136993333D01*
X75620476Y-137040952D01*
X75668095Y-137088571D01*
X75715714Y-137183809D01*
X75715714Y-137421904D01*
X75668095Y-137517142D01*
X75620476Y-137564761D01*
X75525238Y-137612380D01*
X75287142Y-137612380D01*
X75191904Y-137564761D01*
X75144285Y-137517142D01*
%TO.C,R4*%
X74763333Y-135072380D02*
X74430000Y-134596190D01*
X74191904Y-135072380D02*
X74191904Y-134072380D01*
X74572857Y-134072380D01*
X74668095Y-134120000D01*
X74715714Y-134167619D01*
X74763333Y-134262857D01*
X74763333Y-134405714D01*
X74715714Y-134500952D01*
X74668095Y-134548571D01*
X74572857Y-134596190D01*
X74191904Y-134596190D01*
X75620476Y-134405714D02*
X75620476Y-135072380D01*
X75382380Y-134024761D02*
X75144285Y-134739047D01*
X75763333Y-134739047D01*
%TO.C,R3*%
X93289380Y-106846666D02*
X92813190Y-107180000D01*
X93289380Y-107418095D02*
X92289380Y-107418095D01*
X92289380Y-107037142D01*
X92337000Y-106941904D01*
X92384619Y-106894285D01*
X92479857Y-106846666D01*
X92622714Y-106846666D01*
X92717952Y-106894285D01*
X92765571Y-106941904D01*
X92813190Y-107037142D01*
X92813190Y-107418095D01*
X92289380Y-106513333D02*
X92289380Y-105894285D01*
X92670333Y-106227619D01*
X92670333Y-106084761D01*
X92717952Y-105989523D01*
X92765571Y-105941904D01*
X92860809Y-105894285D01*
X93098904Y-105894285D01*
X93194142Y-105941904D01*
X93241761Y-105989523D01*
X93289380Y-106084761D01*
X93289380Y-106370476D01*
X93241761Y-106465714D01*
X93194142Y-106513333D01*
%TO.C,R2*%
X90622380Y-106846666D02*
X90146190Y-107180000D01*
X90622380Y-107418095D02*
X89622380Y-107418095D01*
X89622380Y-107037142D01*
X89670000Y-106941904D01*
X89717619Y-106894285D01*
X89812857Y-106846666D01*
X89955714Y-106846666D01*
X90050952Y-106894285D01*
X90098571Y-106941904D01*
X90146190Y-107037142D01*
X90146190Y-107418095D01*
X89717619Y-106465714D02*
X89670000Y-106418095D01*
X89622380Y-106322857D01*
X89622380Y-106084761D01*
X89670000Y-105989523D01*
X89717619Y-105941904D01*
X89812857Y-105894285D01*
X89908095Y-105894285D01*
X90050952Y-105941904D01*
X90622380Y-106513333D01*
X90622380Y-105894285D01*
%TO.C,R1*%
X95702380Y-106846666D02*
X95226190Y-107180000D01*
X95702380Y-107418095D02*
X94702380Y-107418095D01*
X94702380Y-107037142D01*
X94750000Y-106941904D01*
X94797619Y-106894285D01*
X94892857Y-106846666D01*
X95035714Y-106846666D01*
X95130952Y-106894285D01*
X95178571Y-106941904D01*
X95226190Y-107037142D01*
X95226190Y-107418095D01*
X95702380Y-105894285D02*
X95702380Y-106465714D01*
X95702380Y-106180000D02*
X94702380Y-106180000D01*
X94845238Y-106275238D01*
X94940476Y-106370476D01*
X94988095Y-106465714D01*
%TO.C,DCF2*%
X110347333Y-145740380D02*
X110347333Y-144740380D01*
X110585428Y-144740380D01*
X110728285Y-144788000D01*
X110823523Y-144883238D01*
X110871142Y-144978476D01*
X110918761Y-145168952D01*
X110918761Y-145311809D01*
X110871142Y-145502285D01*
X110823523Y-145597523D01*
X110728285Y-145692761D01*
X110585428Y-145740380D01*
X110347333Y-145740380D01*
X111918761Y-145645142D02*
X111871142Y-145692761D01*
X111728285Y-145740380D01*
X111633047Y-145740380D01*
X111490190Y-145692761D01*
X111394952Y-145597523D01*
X111347333Y-145502285D01*
X111299714Y-145311809D01*
X111299714Y-145168952D01*
X111347333Y-144978476D01*
X111394952Y-144883238D01*
X111490190Y-144788000D01*
X111633047Y-144740380D01*
X111728285Y-144740380D01*
X111871142Y-144788000D01*
X111918761Y-144835619D01*
X112680666Y-145216571D02*
X112347333Y-145216571D01*
X112347333Y-145740380D02*
X112347333Y-144740380D01*
X112823523Y-144740380D01*
X113156857Y-144835619D02*
X113204476Y-144788000D01*
X113299714Y-144740380D01*
X113537809Y-144740380D01*
X113633047Y-144788000D01*
X113680666Y-144835619D01*
X113728285Y-144930857D01*
X113728285Y-145026095D01*
X113680666Y-145168952D01*
X113109238Y-145740380D01*
X113728285Y-145740380D01*
%TO.C,DCF1*%
X109077333Y-161234380D02*
X109077333Y-160234380D01*
X109315428Y-160234380D01*
X109458285Y-160282000D01*
X109553523Y-160377238D01*
X109601142Y-160472476D01*
X109648761Y-160662952D01*
X109648761Y-160805809D01*
X109601142Y-160996285D01*
X109553523Y-161091523D01*
X109458285Y-161186761D01*
X109315428Y-161234380D01*
X109077333Y-161234380D01*
X110648761Y-161139142D02*
X110601142Y-161186761D01*
X110458285Y-161234380D01*
X110363047Y-161234380D01*
X110220190Y-161186761D01*
X110124952Y-161091523D01*
X110077333Y-160996285D01*
X110029714Y-160805809D01*
X110029714Y-160662952D01*
X110077333Y-160472476D01*
X110124952Y-160377238D01*
X110220190Y-160282000D01*
X110363047Y-160234380D01*
X110458285Y-160234380D01*
X110601142Y-160282000D01*
X110648761Y-160329619D01*
X111410666Y-160710571D02*
X111077333Y-160710571D01*
X111077333Y-161234380D02*
X111077333Y-160234380D01*
X111553523Y-160234380D01*
X112458285Y-161234380D02*
X111886857Y-161234380D01*
X112172571Y-161234380D02*
X112172571Y-160234380D01*
X112077333Y-160377238D01*
X111982095Y-160472476D01*
X111886857Y-160520095D01*
%TO.C,C1*%
X136993333Y-155678142D02*
X136945714Y-155725761D01*
X136802857Y-155773380D01*
X136707619Y-155773380D01*
X136564761Y-155725761D01*
X136469523Y-155630523D01*
X136421904Y-155535285D01*
X136374285Y-155344809D01*
X136374285Y-155201952D01*
X136421904Y-155011476D01*
X136469523Y-154916238D01*
X136564761Y-154821000D01*
X136707619Y-154773380D01*
X136802857Y-154773380D01*
X136945714Y-154821000D01*
X136993333Y-154868619D01*
X137945714Y-155773380D02*
X137374285Y-155773380D01*
X137660000Y-155773380D02*
X137660000Y-154773380D01*
X137564761Y-154916238D01*
X137469523Y-155011476D01*
X137374285Y-155059095D01*
%TD*%
M02*
