%TF.GenerationSoftware,KiCad,Pcbnew,(5.1.7)-1*%
%TF.CreationDate,2020-10-17T18:25:27+02:00*%
%TF.ProjectId,SteirischeWortUhr2,53746569-7269-4736-9368-65576f727455,rev?*%
%TF.SameCoordinates,Original*%
%TF.FileFunction,Copper,L2,Bot*%
%TF.FilePolarity,Positive*%
%FSLAX46Y46*%
G04 Gerber Fmt 4.6, Leading zero omitted, Abs format (unit mm)*
G04 Created by KiCad (PCBNEW (5.1.7)-1) date 2020-10-17 18:25:27*
%MOMM*%
%LPD*%
G01*
G04 APERTURE LIST*
%TA.AperFunction,ComponentPad*%
%ADD10O,1.700000X2.000000*%
%TD*%
%TA.AperFunction,ComponentPad*%
%ADD11O,1.400000X1.400000*%
%TD*%
%TA.AperFunction,ComponentPad*%
%ADD12C,1.400000*%
%TD*%
%TA.AperFunction,ComponentPad*%
%ADD13C,1.800000*%
%TD*%
%TA.AperFunction,ComponentPad*%
%ADD14R,1.800000X1.800000*%
%TD*%
%TA.AperFunction,ComponentPad*%
%ADD15O,1.200000X2.000000*%
%TD*%
%TA.AperFunction,ComponentPad*%
%ADD16C,1.600000*%
%TD*%
%TA.AperFunction,ComponentPad*%
%ADD17R,1.600000X1.600000*%
%TD*%
%TA.AperFunction,ComponentPad*%
%ADD18O,1.600000X1.600000*%
%TD*%
%TA.AperFunction,ViaPad*%
%ADD19C,0.800000*%
%TD*%
%TA.AperFunction,Conductor*%
%ADD20C,0.250000*%
%TD*%
G04 APERTURE END LIST*
D10*
%TO.P,J2KEY1,2*%
%TO.N,GND*%
X111085000Y-164973000D03*
%TO.P,J2KEY1,1*%
%TO.N,Net-(ArduinoNanoV3-Pad20)*%
%TA.AperFunction,ComponentPad*%
G36*
G01*
X107735000Y-165723000D02*
X107735000Y-164223000D01*
G75*
G02*
X107985000Y-163973000I250000J0D01*
G01*
X109185000Y-163973000D01*
G75*
G02*
X109435000Y-164223000I0J-250000D01*
G01*
X109435000Y-165723000D01*
G75*
G02*
X109185000Y-165973000I-250000J0D01*
G01*
X107985000Y-165973000D01*
G75*
G02*
X107735000Y-165723000I0J250000D01*
G01*
G37*
%TD.AperFunction*%
%TD*%
%TO.P,J1PWR1,2*%
%TO.N,GND*%
X102449000Y-164973000D03*
%TO.P,J1PWR1,1*%
%TO.N,Net-(ArduinoNanoV3-Pad30)*%
%TA.AperFunction,ComponentPad*%
G36*
G01*
X99099000Y-165723000D02*
X99099000Y-164223000D01*
G75*
G02*
X99349000Y-163973000I250000J0D01*
G01*
X100549000Y-163973000D01*
G75*
G02*
X100799000Y-164223000I0J-250000D01*
G01*
X100799000Y-165723000D01*
G75*
G02*
X100549000Y-165973000I-250000J0D01*
G01*
X99349000Y-165973000D01*
G75*
G02*
X99099000Y-165723000I0J250000D01*
G01*
G37*
%TD.AperFunction*%
%TD*%
D11*
%TO.P,R11,2*%
%TO.N,Net-(C1-Pad2)*%
X128524000Y-151638000D03*
D12*
%TO.P,R11,1*%
%TO.N,GND*%
X120904000Y-151638000D03*
%TD*%
D11*
%TO.P,R10,2*%
%TO.N,Net-(LED_ANS_1-Pad2)*%
X71120000Y-147320000D03*
D12*
%TO.P,R10,1*%
%TO.N,Net-(ArduinoNanoV3-Pad13)*%
X78740000Y-147320000D03*
%TD*%
D11*
%TO.P,R9,2*%
%TO.N,Net-(LED_DREI_1-Pad2)*%
X71120000Y-144780000D03*
D12*
%TO.P,R9,1*%
%TO.N,Net-(ArduinoNanoV3-Pad12)*%
X78740000Y-144780000D03*
%TD*%
D11*
%TO.P,R8,2*%
%TO.N,Net-(LED_NAINE_1-Pad2)*%
X109220000Y-137160000D03*
D12*
%TO.P,R8,1*%
%TO.N,Net-(ArduinoNanoV3-Pad11)*%
X101600000Y-137160000D03*
%TD*%
D11*
%TO.P,R7,2*%
%TO.N,Net-(LED_ZW\u00D6LFE_1-Pad2)*%
X71120000Y-131064000D03*
D12*
%TO.P,R7,1*%
%TO.N,Net-(ArduinoNanoV3-Pad10)*%
X78740000Y-131064000D03*
%TD*%
D11*
%TO.P,R6,2*%
%TO.N,Net-(LED_SIEBN_1-Pad2)*%
X109220000Y-139700000D03*
D12*
%TO.P,R6,1*%
%TO.N,Net-(ArduinoNanoV3-Pad10)*%
X101600000Y-139700000D03*
%TD*%
D11*
%TO.P,R5,2*%
%TO.N,Net-(ArduinoNanoV3-Pad9)*%
X78740000Y-137160000D03*
D12*
%TO.P,R5,1*%
%TO.N,Net-(LED_SCHO_1-Pad2)*%
X71120000Y-137160000D03*
%TD*%
D11*
%TO.P,R4,2*%
%TO.N,Net-(LED_GLEI_1-Pad2)*%
X71120000Y-134620000D03*
D12*
%TO.P,R4,1*%
%TO.N,Net-(ArduinoNanoV3-Pad8)*%
X78740000Y-134620000D03*
%TD*%
D11*
%TO.P,R3,2*%
%TO.N,Net-(LED_DREI4TL_1-Pad2)*%
X92710000Y-102870000D03*
D12*
%TO.P,R3,1*%
%TO.N,Net-(ArduinoNanoV3-Pad6)*%
X92710000Y-110490000D03*
%TD*%
D11*
%TO.P,R2,2*%
%TO.N,Net-(LED_VIERTL_1-Pad2)*%
X90170000Y-102870000D03*
D12*
%TO.P,R2,1*%
%TO.N,Net-(ArduinoNanoV3-Pad6)*%
X90170000Y-110490000D03*
%TD*%
D11*
%TO.P,R1,2*%
%TO.N,Net-(LED_ESIS_1-Pad2)*%
X95250000Y-102870000D03*
D12*
%TO.P,R1,1*%
%TO.N,Net-(ArduinoNanoV3-Pad19)*%
X95250000Y-110490000D03*
%TD*%
D13*
%TO.P,LED_\u00D6FE_1,2*%
%TO.N,Net-(LED_ANS_1-Pad2)*%
X137000000Y-161460000D03*
D14*
%TO.P,LED_\u00D6FE_1,1*%
%TO.N,Net-(ArduinoNanoV3-Pad16)*%
X137000000Y-164000000D03*
%TD*%
D13*
%TO.P,LED_ZW\u00D6LFE_3,2*%
%TO.N,Net-(LED_ZW\u00D6LFE_1-Pad2)*%
X20000000Y-107460000D03*
D14*
%TO.P,LED_ZW\u00D6LFE_3,1*%
%TO.N,Net-(ArduinoNanoV3-Pad16)*%
X20000000Y-110000000D03*
%TD*%
D13*
%TO.P,LED_ZW\u00D6LFE_2,2*%
%TO.N,Net-(LED_ZW\u00D6LFE_1-Pad2)*%
X50000000Y-107460000D03*
D14*
%TO.P,LED_ZW\u00D6LFE_2,1*%
%TO.N,Net-(ArduinoNanoV3-Pad16)*%
X50000000Y-110000000D03*
%TD*%
D13*
%TO.P,LED_ZW\u00D6LFE_1,2*%
%TO.N,Net-(LED_ZW\u00D6LFE_1-Pad2)*%
X80000000Y-107460000D03*
D14*
%TO.P,LED_ZW\u00D6LFE_1,1*%
%TO.N,Net-(ArduinoNanoV3-Pad16)*%
X80000000Y-110000000D03*
%TD*%
D13*
%TO.P,LED_ZWA_1,2*%
%TO.N,Net-(LED_ANS_1-Pad2)*%
X89000000Y-71460000D03*
D14*
%TO.P,LED_ZWA_1,1*%
%TO.N,Net-(ArduinoNanoV3-Pad15)*%
X89000000Y-74000000D03*
%TD*%
D13*
%TO.P,LED_ZEHNE_2,2*%
%TO.N,Net-(LED_SIEBN_1-Pad2)*%
X104000000Y-143460000D03*
D14*
%TO.P,LED_ZEHNE_2,1*%
%TO.N,Net-(ArduinoNanoV3-Pad14)*%
X104000000Y-146000000D03*
%TD*%
D13*
%TO.P,LED_ZEHNE_1,2*%
%TO.N,Net-(LED_SIEBN_1-Pad2)*%
X140000000Y-143460000D03*
D14*
%TO.P,LED_ZEHNE_1,1*%
%TO.N,Net-(ArduinoNanoV3-Pad14)*%
X140000000Y-146000000D03*
%TD*%
D13*
%TO.P,LED_VUABEI_3,2*%
%TO.N,Net-(LED_SCHO_1-Pad2)*%
X20000000Y-161460000D03*
D14*
%TO.P,LED_VUABEI_3,1*%
%TO.N,GND*%
X20000000Y-164000000D03*
%TD*%
D13*
%TO.P,LED_VUABEI_2,2*%
%TO.N,Net-(LED_SCHO_1-Pad2)*%
X50000000Y-161460000D03*
D14*
%TO.P,LED_VUABEI_2,1*%
%TO.N,GND*%
X50000000Y-164000000D03*
%TD*%
D13*
%TO.P,LED_VUABEI_1,2*%
%TO.N,Net-(LED_SCHO_1-Pad2)*%
X80000000Y-161460000D03*
D14*
%TO.P,LED_VUABEI_1,1*%
%TO.N,GND*%
X80000000Y-164000000D03*
%TD*%
D13*
%TO.P,LED_VIERTL_3,2*%
%TO.N,Net-(LED_VIERTL_1-Pad2)*%
X20000000Y-53460000D03*
D14*
%TO.P,LED_VIERTL_3,1*%
%TO.N,GND*%
X20000000Y-56000000D03*
%TD*%
D13*
%TO.P,LED_VIERTL_2,2*%
%TO.N,Net-(LED_VIERTL_1-Pad2)*%
X50000000Y-53460000D03*
D14*
%TO.P,LED_VIERTL_2,1*%
%TO.N,GND*%
X50000000Y-56000000D03*
%TD*%
D13*
%TO.P,LED_VIERTL_1,2*%
%TO.N,Net-(LED_VIERTL_1-Pad2)*%
X80000000Y-53460000D03*
D14*
%TO.P,LED_VIERTL_1,1*%
%TO.N,GND*%
X80000000Y-56000000D03*
%TD*%
D13*
%TO.P,LED_VIERE_2,2*%
%TO.N,Net-(LED_DREI_1-Pad2)*%
X104000000Y-89460000D03*
D14*
%TO.P,LED_VIERE_2,1*%
%TO.N,Net-(ArduinoNanoV3-Pad15)*%
X104000000Y-92000000D03*
%TD*%
D13*
%TO.P,LED_VIERE_1,2*%
%TO.N,Net-(LED_DREI_1-Pad2)*%
X140000000Y-89460000D03*
D14*
%TO.P,LED_VIERE_1,1*%
%TO.N,Net-(ArduinoNanoV3-Pad15)*%
X140000000Y-92000000D03*
%TD*%
D13*
%TO.P,LED_SIEBN_2,2*%
%TO.N,Net-(LED_SIEBN_1-Pad2)*%
X24000000Y-143460000D03*
D14*
%TO.P,LED_SIEBN_2,1*%
%TO.N,Net-(ArduinoNanoV3-Pad15)*%
X24000000Y-146000000D03*
%TD*%
D13*
%TO.P,LED_SIEBN_1,2*%
%TO.N,Net-(LED_SIEBN_1-Pad2)*%
X60000000Y-143460000D03*
D14*
%TO.P,LED_SIEBN_1,1*%
%TO.N,Net-(ArduinoNanoV3-Pad15)*%
X60000000Y-146000000D03*
%TD*%
D13*
%TO.P,LED_SEXE_2,2*%
%TO.N,Net-(LED_NAINE_1-Pad2)*%
X144000000Y-107460000D03*
D14*
%TO.P,LED_SEXE_2,1*%
%TO.N,Net-(ArduinoNanoV3-Pad14)*%
X144000000Y-110000000D03*
%TD*%
D13*
%TO.P,LED_SEXE_1,2*%
%TO.N,Net-(LED_NAINE_1-Pad2)*%
X116000000Y-107460000D03*
D14*
%TO.P,LED_SEXE_1,1*%
%TO.N,Net-(ArduinoNanoV3-Pad14)*%
X116000000Y-110000000D03*
%TD*%
D13*
%TO.P,LED_SCHO_2,2*%
%TO.N,Net-(LED_SCHO_1-Pad2)*%
X116000000Y-35460000D03*
D14*
%TO.P,LED_SCHO_2,1*%
%TO.N,GND*%
X116000000Y-38000000D03*
%TD*%
D13*
%TO.P,LED_SCHO_1,2*%
%TO.N,Net-(LED_SCHO_1-Pad2)*%
X144000000Y-35460000D03*
D14*
%TO.P,LED_SCHO_1,1*%
%TO.N,GND*%
X144000000Y-38000000D03*
%TD*%
D13*
%TO.P,LED_OCHTE_2,2*%
%TO.N,Net-(LED_NAINE_1-Pad2)*%
X104000000Y-125460000D03*
D14*
%TO.P,LED_OCHTE_2,1*%
%TO.N,Net-(ArduinoNanoV3-Pad15)*%
X104000000Y-128000000D03*
%TD*%
D13*
%TO.P,LED_OCHTE_1,2*%
%TO.N,Net-(LED_NAINE_1-Pad2)*%
X140000000Y-125460000D03*
D14*
%TO.P,LED_OCHTE_1,1*%
%TO.N,Net-(ArduinoNanoV3-Pad15)*%
X140000000Y-128000000D03*
%TD*%
D13*
%TO.P,LED_NAINE_2,2*%
%TO.N,Net-(LED_NAINE_1-Pad2)*%
X24000000Y-125460000D03*
D14*
%TO.P,LED_NAINE_2,1*%
%TO.N,Net-(ArduinoNanoV3-Pad16)*%
X24000000Y-128000000D03*
%TD*%
D13*
%TO.P,LED_NAINE_1,2*%
%TO.N,Net-(LED_NAINE_1-Pad2)*%
X60000000Y-125460000D03*
D14*
%TO.P,LED_NAINE_1,1*%
%TO.N,Net-(ArduinoNanoV3-Pad16)*%
X60000000Y-128000000D03*
%TD*%
D13*
%TO.P,LED_HOLBA_2,2*%
%TO.N,Net-(ArduinoNanoV3-Pad7)*%
X24000000Y-35460000D03*
D14*
%TO.P,LED_HOLBA_2,1*%
%TO.N,Net-(LED_DREI4TL_1-Pad2)*%
X24000000Y-38000000D03*
%TD*%
D13*
%TO.P,LED_HOLBA_1,2*%
%TO.N,Net-(ArduinoNanoV3-Pad7)*%
X60000000Y-35460000D03*
D14*
%TO.P,LED_HOLBA_1,1*%
%TO.N,Net-(LED_DREI4TL_1-Pad2)*%
X60000000Y-38000000D03*
%TD*%
D13*
%TO.P,LED_GLEI_2,2*%
%TO.N,Net-(LED_GLEI_1-Pad2)*%
X20000000Y-17460000D03*
D14*
%TO.P,LED_GLEI_2,1*%
%TO.N,GND*%
X20000000Y-20000000D03*
%TD*%
D13*
%TO.P,LED_GLEI_1,2*%
%TO.N,Net-(LED_GLEI_1-Pad2)*%
X48000000Y-17460000D03*
D14*
%TO.P,LED_GLEI_1,1*%
%TO.N,GND*%
X48000000Y-20000000D03*
%TD*%
D13*
%TO.P,LED_F\u00DCNFE_2,2*%
%TO.N,Net-(LED_DREI_1-Pad2)*%
X24000000Y-89460000D03*
D14*
%TO.P,LED_F\u00DCNFE_2,1*%
%TO.N,Net-(ArduinoNanoV3-Pad16)*%
X24000000Y-92000000D03*
%TD*%
D13*
%TO.P,LED_F\u00DCNFE_1,2*%
%TO.N,Net-(LED_DREI_1-Pad2)*%
X60000000Y-89460000D03*
D14*
%TO.P,LED_F\u00DCNFE_1,1*%
%TO.N,Net-(ArduinoNanoV3-Pad16)*%
X60000000Y-92000000D03*
%TD*%
D13*
%TO.P,LED_ESIS_2,2*%
%TO.N,Net-(LED_ESIS_1-Pad2)*%
X98000000Y-17460000D03*
D14*
%TO.P,LED_ESIS_2,1*%
%TO.N,GND*%
X98000000Y-20000000D03*
%TD*%
D13*
%TO.P,LED_ESIS_1,2*%
%TO.N,Net-(LED_ESIS_1-Pad2)*%
X146000000Y-17460000D03*
D14*
%TO.P,LED_ESIS_1,1*%
%TO.N,GND*%
X146000000Y-20000000D03*
%TD*%
D13*
%TO.P,LED_DREI_2,2*%
%TO.N,Net-(LED_DREI_1-Pad2)*%
X20000000Y-71460000D03*
D14*
%TO.P,LED_DREI_2,1*%
%TO.N,Net-(ArduinoNanoV3-Pad14)*%
X20000000Y-74000000D03*
%TD*%
D13*
%TO.P,LED_DREI_1,2*%
%TO.N,Net-(LED_DREI_1-Pad2)*%
X48000000Y-71460000D03*
D14*
%TO.P,LED_DREI_1,1*%
%TO.N,Net-(ArduinoNanoV3-Pad14)*%
X48000000Y-74000000D03*
%TD*%
D13*
%TO.P,LED_DREI4TL_2,2*%
%TO.N,Net-(LED_DREI4TL_1-Pad2)*%
X116000000Y-53460000D03*
D14*
%TO.P,LED_DREI4TL_2,1*%
%TO.N,Net-(ArduinoNanoV3-Pad7)*%
X116000000Y-56000000D03*
%TD*%
D13*
%TO.P,LED_DREI4TL_1,2*%
%TO.N,Net-(LED_DREI4TL_1-Pad2)*%
X144000000Y-53460000D03*
D14*
%TO.P,LED_DREI4TL_1,1*%
%TO.N,Net-(ArduinoNanoV3-Pad7)*%
X144000000Y-56000000D03*
%TD*%
D13*
%TO.P,LED_ANS_1,2*%
%TO.N,Net-(LED_ANS_1-Pad2)*%
X137000000Y-71460000D03*
D14*
%TO.P,LED_ANS_1,1*%
%TO.N,Net-(ArduinoNanoV3-Pad14)*%
X137000000Y-74000000D03*
%TD*%
D15*
%TO.P,DCF2,5*%
%TO.N,GND*%
X128524000Y-155448000D03*
%TO.P,DCF2,4*%
%TO.N,Net-(ArduinoNanoV3-Pad5)*%
X125984000Y-155448000D03*
%TO.P,DCF2,3*%
%TO.N,N/C*%
X123444000Y-155448000D03*
%TO.P,DCF2,2*%
%TO.N,GND*%
X120904000Y-155448000D03*
%TO.P,DCF2,1*%
%TO.N,+3V3*%
X118364000Y-155448000D03*
%TD*%
%TO.P,DCF1,4*%
%TO.N,Net-(C1-Pad2)*%
X125984000Y-159258000D03*
%TO.P,DCF1,3*%
%TO.N,Net-(ArduinoNanoV3-Pad5)*%
X123444000Y-159258000D03*
%TO.P,DCF1,2*%
%TO.N,GND*%
X120904000Y-159258000D03*
%TO.P,DCF1,1*%
%TO.N,+3V3*%
X118364000Y-159258000D03*
%TD*%
D16*
%TO.P,C1,2*%
%TO.N,Net-(C1-Pad2)*%
X134874000Y-151718000D03*
D17*
%TO.P,C1,1*%
%TO.N,+3V3*%
X134874000Y-156718000D03*
%TD*%
D18*
%TO.P,ArduinoNanoV3,16*%
%TO.N,Net-(ArduinoNanoV3-Pad16)*%
X97790000Y-152400000D03*
%TO.P,ArduinoNanoV3,15*%
%TO.N,Net-(ArduinoNanoV3-Pad15)*%
X82550000Y-152400000D03*
%TO.P,ArduinoNanoV3,30*%
%TO.N,Net-(ArduinoNanoV3-Pad30)*%
X97790000Y-116840000D03*
%TO.P,ArduinoNanoV3,14*%
%TO.N,Net-(ArduinoNanoV3-Pad14)*%
X82550000Y-149860000D03*
%TO.P,ArduinoNanoV3,29*%
%TO.N,GND*%
X97790000Y-119380000D03*
%TO.P,ArduinoNanoV3,13*%
%TO.N,Net-(ArduinoNanoV3-Pad13)*%
X82550000Y-147320000D03*
%TO.P,ArduinoNanoV3,28*%
%TO.N,Net-(ArduinoNanoV3-Pad28)*%
X97790000Y-121920000D03*
%TO.P,ArduinoNanoV3,12*%
%TO.N,Net-(ArduinoNanoV3-Pad12)*%
X82550000Y-144780000D03*
%TO.P,ArduinoNanoV3,27*%
%TO.N,+5V*%
X97790000Y-124460000D03*
%TO.P,ArduinoNanoV3,11*%
%TO.N,Net-(ArduinoNanoV3-Pad11)*%
X82550000Y-142240000D03*
%TO.P,ArduinoNanoV3,26*%
%TO.N,Net-(ArduinoNanoV3-Pad26)*%
X97790000Y-127000000D03*
%TO.P,ArduinoNanoV3,10*%
%TO.N,Net-(ArduinoNanoV3-Pad10)*%
X82550000Y-139700000D03*
%TO.P,ArduinoNanoV3,25*%
%TO.N,Net-(ArduinoNanoV3-Pad25)*%
X97790000Y-129540000D03*
%TO.P,ArduinoNanoV3,9*%
%TO.N,Net-(ArduinoNanoV3-Pad9)*%
X82550000Y-137160000D03*
%TO.P,ArduinoNanoV3,24*%
%TO.N,Net-(ArduinoNanoV3-Pad24)*%
X97790000Y-132080000D03*
%TO.P,ArduinoNanoV3,8*%
%TO.N,Net-(ArduinoNanoV3-Pad8)*%
X82550000Y-134620000D03*
%TO.P,ArduinoNanoV3,23*%
%TO.N,Net-(ArduinoNanoV3-Pad23)*%
X97790000Y-134620000D03*
%TO.P,ArduinoNanoV3,7*%
%TO.N,Net-(ArduinoNanoV3-Pad7)*%
X82550000Y-132080000D03*
%TO.P,ArduinoNanoV3,22*%
%TO.N,Net-(ArduinoNanoV3-Pad22)*%
X97790000Y-137160000D03*
%TO.P,ArduinoNanoV3,6*%
%TO.N,Net-(ArduinoNanoV3-Pad6)*%
X82550000Y-129540000D03*
%TO.P,ArduinoNanoV3,21*%
%TO.N,Net-(ArduinoNanoV3-Pad21)*%
X97790000Y-139700000D03*
%TO.P,ArduinoNanoV3,5*%
%TO.N,Net-(ArduinoNanoV3-Pad5)*%
X82550000Y-127000000D03*
%TO.P,ArduinoNanoV3,20*%
%TO.N,Net-(ArduinoNanoV3-Pad20)*%
X97790000Y-142240000D03*
%TO.P,ArduinoNanoV3,4*%
%TO.N,GND*%
X82550000Y-124460000D03*
%TO.P,ArduinoNanoV3,19*%
%TO.N,Net-(ArduinoNanoV3-Pad19)*%
X97790000Y-144780000D03*
%TO.P,ArduinoNanoV3,3*%
%TO.N,Net-(ArduinoNanoV3-Pad3)*%
X82550000Y-121920000D03*
%TO.P,ArduinoNanoV3,18*%
%TO.N,Net-(ArduinoNanoV3-Pad18)*%
X97790000Y-147320000D03*
%TO.P,ArduinoNanoV3,2*%
%TO.N,Net-(ArduinoNanoV3-Pad2)*%
X82550000Y-119380000D03*
%TO.P,ArduinoNanoV3,17*%
%TO.N,+3V3*%
X97790000Y-149860000D03*
D17*
%TO.P,ArduinoNanoV3,1*%
%TO.N,Net-(ArduinoNanoV3-Pad1)*%
X82550000Y-116840000D03*
%TD*%
D19*
%TO.N,Net-(ArduinoNanoV3-Pad5)*%
X101436010Y-133494999D03*
%TO.N,Net-(LED_SIEBN_1-Pad2)*%
X84963000Y-148463000D03*
%TD*%
D20*
%TO.N,Net-(ArduinoNanoV3-Pad16)*%
X20000000Y-110000000D02*
X50000000Y-110000000D01*
X60000000Y-92000000D02*
X24000000Y-92000000D01*
X50000000Y-110000000D02*
X80000000Y-110000000D01*
X24000000Y-128000000D02*
X60000000Y-128000000D01*
X70358000Y-132969000D02*
X65389000Y-128000000D01*
X72898000Y-133985000D02*
X71882000Y-132969000D01*
X70612000Y-146050000D02*
X71628000Y-146050000D01*
X69850000Y-146812000D02*
X70612000Y-146050000D01*
X71882000Y-132969000D02*
X70358000Y-132969000D01*
X69850000Y-148590000D02*
X69850000Y-146812000D01*
X65389000Y-128000000D02*
X60000000Y-128000000D01*
X76200000Y-154940000D02*
X69850000Y-148590000D01*
X83566000Y-154940000D02*
X76200000Y-154940000D01*
X86106000Y-152400000D02*
X83566000Y-154940000D01*
X72898000Y-144780000D02*
X72898000Y-133985000D01*
X71628000Y-146050000D02*
X72898000Y-144780000D01*
X97790000Y-152400000D02*
X86106000Y-152400000D01*
X18669000Y-97331000D02*
X24000000Y-92000000D01*
X18669000Y-108669000D02*
X18669000Y-97331000D01*
X20000000Y-110000000D02*
X18669000Y-108669000D01*
X20000000Y-124013000D02*
X20000000Y-110000000D01*
X23987000Y-128000000D02*
X20000000Y-124013000D01*
X24000000Y-128000000D02*
X23987000Y-128000000D01*
X120439000Y-164000000D02*
X108839000Y-152400000D01*
X108839000Y-152400000D02*
X97790000Y-152400000D01*
X137000000Y-164000000D02*
X120439000Y-164000000D01*
%TO.N,Net-(ArduinoNanoV3-Pad15)*%
X24000000Y-146000000D02*
X60000000Y-146000000D01*
X104000000Y-128000000D02*
X140000000Y-128000000D01*
X104000000Y-92000000D02*
X140000000Y-92000000D01*
X89000000Y-77000000D02*
X104000000Y-92000000D01*
X89000000Y-74000000D02*
X89000000Y-77000000D01*
X81280000Y-149344999D02*
X81280000Y-151130000D01*
X83566000Y-148590000D02*
X82034999Y-148590000D01*
X81280000Y-151130000D02*
X82550000Y-152400000D01*
X82034999Y-148590000D02*
X81280000Y-149344999D01*
X88646000Y-143510000D02*
X83566000Y-148590000D01*
X101600000Y-143510000D02*
X88646000Y-143510000D01*
X104000000Y-141110000D02*
X101600000Y-143510000D01*
X104000000Y-128000000D02*
X104000000Y-141110000D01*
X102489000Y-126489000D02*
X104000000Y-128000000D01*
X102489000Y-93511000D02*
X102489000Y-126489000D01*
X104000000Y-92000000D02*
X102489000Y-93511000D01*
%TO.N,Net-(ArduinoNanoV3-Pad14)*%
X116000000Y-110000000D02*
X144000000Y-110000000D01*
X104000000Y-146000000D02*
X140000000Y-146000000D01*
X20000000Y-74000000D02*
X48000000Y-74000000D01*
X145225001Y-82225001D02*
X137000000Y-74000000D01*
X145225001Y-108774999D02*
X145225001Y-82225001D01*
X144000000Y-110000000D02*
X145225001Y-108774999D01*
X101410000Y-148590000D02*
X104000000Y-146000000D01*
X84836000Y-149860000D02*
X86106000Y-148590000D01*
X86106000Y-148590000D02*
X101410000Y-148590000D01*
X82550000Y-149860000D02*
X84836000Y-149860000D01*
X83058000Y-153670000D02*
X83820000Y-152908000D01*
X81788000Y-153670000D02*
X83058000Y-153670000D01*
X77089000Y-119888000D02*
X77089000Y-148971000D01*
X83820000Y-151130000D02*
X82550000Y-149860000D01*
X82296000Y-114681000D02*
X77089000Y-119888000D01*
X82296000Y-104140000D02*
X82296000Y-114681000D01*
X83820000Y-152908000D02*
X83820000Y-151130000D01*
X52156000Y-74000000D02*
X82296000Y-104140000D01*
X77089000Y-148971000D02*
X81788000Y-153670000D01*
X48000000Y-74000000D02*
X52156000Y-74000000D01*
X141732000Y-144268000D02*
X140000000Y-146000000D01*
X141732000Y-112268000D02*
X141732000Y-144268000D01*
X144000000Y-110000000D02*
X141732000Y-112268000D01*
%TO.N,Net-(ArduinoNanoV3-Pad13)*%
X82550000Y-147320000D02*
X78740000Y-147320000D01*
%TO.N,Net-(ArduinoNanoV3-Pad12)*%
X82550000Y-144780000D02*
X78740000Y-144780000D01*
%TO.N,Net-(ArduinoNanoV3-Pad11)*%
X102625001Y-140192001D02*
X102625001Y-138185001D01*
X101847002Y-140970000D02*
X102625001Y-140192001D01*
X102625001Y-138185001D02*
X101600000Y-137160000D01*
X83820000Y-140970000D02*
X101847002Y-140970000D01*
X82550000Y-142240000D02*
X83820000Y-140970000D01*
%TO.N,Net-(ArduinoNanoV3-Pad10)*%
X82550000Y-139700000D02*
X79248000Y-139700000D01*
X77714999Y-138166999D02*
X77714999Y-133105001D01*
X79248000Y-139700000D02*
X77714999Y-138166999D01*
X78740000Y-131064000D02*
X78740000Y-132080000D01*
X78740000Y-132080000D02*
X77714999Y-133105001D01*
X83675001Y-138574999D02*
X82550000Y-139700000D01*
X99204999Y-138574999D02*
X83675001Y-138574999D01*
X100330000Y-139700000D02*
X99204999Y-138574999D01*
X101600000Y-139700000D02*
X100330000Y-139700000D01*
%TO.N,Net-(ArduinoNanoV3-Pad9)*%
X82550000Y-137160000D02*
X78740000Y-137160000D01*
%TO.N,Net-(ArduinoNanoV3-Pad8)*%
X82550000Y-134620000D02*
X78740000Y-134620000D01*
%TO.N,Net-(ArduinoNanoV3-Pad7)*%
X24000000Y-35460000D02*
X60000000Y-35460000D01*
X144000000Y-56000000D02*
X116000000Y-56000000D01*
X18774999Y-40685001D02*
X24000000Y-35460000D01*
X18774999Y-57382999D02*
X18774999Y-40685001D01*
X19304000Y-57912000D02*
X18774999Y-57382999D01*
X40132000Y-57912000D02*
X19304000Y-57912000D01*
X91195001Y-108975001D02*
X40132000Y-57912000D01*
X91440000Y-111760000D02*
X91440000Y-109220000D01*
X83675001Y-119524999D02*
X91440000Y-111760000D01*
X91440000Y-109220000D02*
X91195001Y-108975001D01*
X83675001Y-130954999D02*
X83675001Y-119524999D01*
X82550000Y-132080000D02*
X83675001Y-130954999D01*
X93980000Y-106680000D02*
X91440000Y-109220000D01*
X93980000Y-102362000D02*
X93980000Y-106680000D01*
X83820000Y-92202000D02*
X93980000Y-102362000D01*
X83820000Y-68072000D02*
X83820000Y-92202000D01*
X95892000Y-56000000D02*
X83820000Y-68072000D01*
X116000000Y-56000000D02*
X95892000Y-56000000D01*
%TO.N,Net-(ArduinoNanoV3-Pad5)*%
X82299997Y-133494999D02*
X101436010Y-133494999D01*
X82550000Y-127000000D02*
X81153000Y-128397000D01*
X81153000Y-132348002D02*
X82299997Y-133494999D01*
X81153000Y-128397000D02*
X81153000Y-132348002D01*
%TO.N,+3V3*%
X134818990Y-156773010D02*
X134874000Y-156718000D01*
X119689010Y-156773010D02*
X134818990Y-156773010D01*
X118364000Y-155448000D02*
X119689010Y-156773010D01*
%TO.N,Net-(C1-Pad2)*%
X128604000Y-151718000D02*
X128524000Y-151638000D01*
X134874000Y-151718000D02*
X128604000Y-151718000D01*
%TO.N,Net-(LED_ANS_1-Pad2)*%
X137000000Y-71460000D02*
X89000000Y-71460000D01*
X145675010Y-152784990D02*
X145675010Y-80135010D01*
X145675010Y-80135010D02*
X137000000Y-71460000D01*
X137000000Y-161460000D02*
X145675010Y-152784990D01*
X83185000Y-154305000D02*
X86504999Y-150985001D01*
X78105000Y-154305000D02*
X83185000Y-154305000D01*
X71120000Y-147320000D02*
X78105000Y-154305000D01*
X108382840Y-150985001D02*
X107205999Y-150985001D01*
X137000000Y-161460000D02*
X118857839Y-161460000D01*
X118857839Y-161460000D02*
X108382840Y-150985001D01*
X86504999Y-150985001D02*
X107205999Y-150985001D01*
%TO.N,Net-(LED_DREI4TL_1-Pad2)*%
X24000000Y-38000000D02*
X60000000Y-38000000D01*
X144000000Y-53460000D02*
X116000000Y-53460000D01*
X66448000Y-38000000D02*
X89408000Y-60960000D01*
X60000000Y-38000000D02*
X66448000Y-38000000D01*
X82804000Y-67564000D02*
X89408000Y-60960000D01*
X82804000Y-92964000D02*
X82804000Y-67564000D01*
X92710000Y-102870000D02*
X82804000Y-92964000D01*
X100450000Y-53460000D02*
X116000000Y-53460000D01*
X96908000Y-53460000D02*
X100450000Y-53460000D01*
X89408000Y-60960000D02*
X96908000Y-53460000D01*
%TO.N,Net-(LED_DREI_1-Pad2)*%
X20000000Y-71460000D02*
X48000000Y-71460000D01*
X18774999Y-84234999D02*
X24000000Y-89460000D01*
X18774999Y-72685001D02*
X18774999Y-84234999D01*
X20000000Y-71460000D02*
X18774999Y-72685001D01*
X140000000Y-89460000D02*
X104000000Y-89460000D01*
X60000000Y-89460000D02*
X24000000Y-89460000D01*
X72145001Y-143754999D02*
X72145001Y-134127999D01*
X71120000Y-144780000D02*
X72145001Y-143754999D01*
X71612001Y-133594999D02*
X27441001Y-133594999D01*
X72145001Y-134127999D02*
X71612001Y-133594999D01*
X27441001Y-133594999D02*
X27432000Y-133604000D01*
X18161000Y-95299000D02*
X24000000Y-89460000D01*
X18161000Y-124546002D02*
X18161000Y-95299000D01*
X27209997Y-133594999D02*
X18161000Y-124546002D01*
X27441001Y-133594999D02*
X27209997Y-133594999D01*
%TO.N,Net-(LED_ESIS_1-Pad2)*%
X99888000Y-17460000D02*
X98000000Y-17460000D01*
X146000000Y-17460000D02*
X99888000Y-17460000D01*
X84836000Y-91440000D02*
X95250000Y-101854000D01*
X95250000Y-101854000D02*
X95250000Y-102870000D01*
X95631000Y-57785000D02*
X84836000Y-68580000D01*
X144600002Y-57785000D02*
X95631000Y-57785000D01*
X145415000Y-56970002D02*
X144600002Y-57785000D01*
X145415000Y-52946999D02*
X145415000Y-56970002D01*
X144411001Y-51943000D02*
X145415000Y-52946999D01*
X127127000Y-51943000D02*
X144411001Y-51943000D01*
X114774999Y-39590999D02*
X127127000Y-51943000D01*
X114774999Y-34256999D02*
X114774999Y-39590999D01*
X97978000Y-17460000D02*
X114774999Y-34256999D01*
X84836000Y-68580000D02*
X84836000Y-91440000D01*
X99888000Y-17460000D02*
X97978000Y-17460000D01*
%TO.N,Net-(LED_GLEI_1-Pad2)*%
X48000000Y-17614998D02*
X48000000Y-17460000D01*
X20000000Y-17460000D02*
X48000000Y-17460000D01*
X27305000Y-134620000D02*
X71120000Y-134620000D01*
X17653000Y-124968000D02*
X27305000Y-134620000D01*
X17653000Y-19807000D02*
X17653000Y-124968000D01*
X20000000Y-17460000D02*
X17653000Y-19807000D01*
%TO.N,Net-(LED_NAINE_1-Pad2)*%
X104000000Y-119460000D02*
X116000000Y-107460000D01*
X104000000Y-125460000D02*
X104000000Y-119460000D01*
X116000000Y-107460000D02*
X144000000Y-107460000D01*
X104000000Y-125460000D02*
X140000000Y-125460000D01*
X24000000Y-125460000D02*
X60000000Y-125460000D01*
%TO.N,Net-(LED_SCHO_1-Pad2)*%
X20000000Y-161460000D02*
X50000000Y-161460000D01*
X50000000Y-161460000D02*
X80000000Y-161460000D01*
X144000000Y-35460000D02*
X116000000Y-35460000D01*
X69088000Y-139192000D02*
X71120000Y-137160000D01*
X69088000Y-148844000D02*
X69088000Y-139192000D01*
X80000000Y-159756000D02*
X69088000Y-148844000D01*
X80000000Y-161460000D02*
X80000000Y-159756000D01*
X85164000Y-166624000D02*
X80000000Y-161460000D01*
X136652000Y-166624000D02*
X85164000Y-166624000D01*
X146304000Y-156972000D02*
X136652000Y-166624000D01*
X146304000Y-37719000D02*
X146304000Y-156972000D01*
X144045000Y-35460000D02*
X146304000Y-37719000D01*
X144000000Y-35460000D02*
X144045000Y-35460000D01*
%TO.N,Net-(LED_SIEBN_1-Pad2)*%
X104000000Y-143460000D02*
X140000000Y-143460000D01*
X107760000Y-139700000D02*
X104000000Y-143460000D01*
X109220000Y-139700000D02*
X107760000Y-139700000D01*
X24000000Y-143460000D02*
X60000000Y-143460000D01*
X101554999Y-145905001D02*
X87520999Y-145905001D01*
X104000000Y-143460000D02*
X101554999Y-145905001D01*
X87520999Y-145905001D02*
X84963000Y-148463000D01*
%TO.N,Net-(LED_VIERTL_1-Pad2)*%
X20000000Y-53460000D02*
X50000000Y-53460000D01*
X50000000Y-53460000D02*
X80000000Y-53460000D01*
X81788000Y-55248000D02*
X80000000Y-53460000D01*
X81788000Y-94488000D02*
X81788000Y-55248000D01*
X90170000Y-102870000D02*
X81788000Y-94488000D01*
%TO.N,Net-(LED_ZW\u00D6LFE_1-Pad2)*%
X20000000Y-107460000D02*
X50000000Y-107460000D01*
X50000000Y-107460000D02*
X80000000Y-107460000D01*
X81225001Y-108685001D02*
X80000000Y-107460000D01*
X81225001Y-114862999D02*
X81225001Y-108685001D01*
X76454000Y-119634000D02*
X81225001Y-114862999D01*
X76454000Y-125730000D02*
X76454000Y-119634000D01*
X71120000Y-131064000D02*
X76454000Y-125730000D01*
%TD*%
M02*
