M48
; DRILL file {KiCad (5.1.7)-1} date 10/17/20 18:25:55
; FORMAT={-:-/ absolute / inch / decimal}
; #@! TF.CreationDate,2020-10-17T18:25:55+02:00
; #@! TF.GenerationSoftware,Kicad,Pcbnew,(5.1.7)-1
; #@! TF.FileFunction,Plated,1,2,PTH
FMAT,2
INCH
T1C0.0157
T2C0.0276
T3C0.0315
T4C0.0354
T5C0.0394
%
G90
G05
T1
X3.345Y-5.845
X3.9935Y-5.2557
T2
X2.8Y-5.4
X3.1Y-5.4
X3.65Y-4.05
X3.65Y-4.35
X4.0Y-5.4
X4.3Y-5.4
X4.0Y-5.5
X4.3Y-5.5
X2.8Y-5.16
X3.1Y-5.16
X3.75Y-4.05
X3.75Y-4.35
X2.8Y-5.7
X3.1Y-5.7
X4.76Y-5.97
X5.06Y-5.97
X3.55Y-4.05
X3.55Y-4.35
X2.8Y-5.8
X3.1Y-5.8
X2.8Y-5.3
X3.1Y-5.3
T3
X4.66Y-6.27
X4.76Y-6.27
X4.86Y-6.27
X4.96Y-6.27
X5.31Y-5.9731
X5.31Y-6.17
X4.66Y-6.12
X4.76Y-6.12
X4.86Y-6.12
X4.96Y-6.12
X5.06Y-6.12
T4
X0.7874Y-2.8134
X0.7874Y-2.9134
X0.9449Y-1.3961
X0.9449Y-1.4961
X2.3622Y-5.648
X2.3622Y-5.748
X1.9685Y-2.1047
X1.9685Y-2.2047
X5.3937Y-6.3567
X5.3937Y-6.4567
X5.748Y-0.6874
X5.748Y-0.7874
X0.9449Y-4.9394
X0.9449Y-5.0394
X5.5118Y-3.522
X5.5118Y-3.622
X4.0945Y-5.648
X4.0945Y-5.748
X0.9449Y-5.648
X0.9449Y-5.748
X4.5669Y-1.3961
X4.5669Y-1.4961
X2.3622Y-3.522
X2.3622Y-3.622
X2.3622Y-4.9394
X2.3622Y-5.0394
X3.1496Y-2.1047
X3.1496Y-2.2047
X3.5039Y-2.8134
X3.5039Y-2.9134
X4.0945Y-3.522
X4.0945Y-3.622
X5.3937Y-2.8134
X5.3937Y-2.9134
X0.9449Y-3.522
X0.9449Y-3.622
X5.5118Y-4.9394
X5.5118Y-5.0394
X5.5118Y-5.648
X5.5118Y-5.748
X0.7874Y-4.2307
X0.7874Y-4.3307
X0.7874Y-2.1047
X0.7874Y-2.2047
X3.8583Y-0.6874
X3.8583Y-0.7874
X1.8898Y-0.6874
X1.8898Y-0.7874
X4.0945Y-4.9394
X4.0945Y-5.0394
X3.1496Y-6.3567
X3.1496Y-6.4567
X3.1496Y-4.2307
X3.1496Y-4.3307
X1.9685Y-4.2307
X1.9685Y-4.3307
X5.6693Y-2.1047
X5.6693Y-2.2047
X0.7874Y-0.6874
X0.7874Y-0.7874
X5.6693Y-1.3961
X5.6693Y-1.4961
X1.9685Y-6.3567
X1.9685Y-6.4567
X1.8898Y-2.8134
X1.8898Y-2.9134
X4.5669Y-2.1047
X4.5669Y-2.2047
X2.3622Y-1.3961
X2.3622Y-1.4961
X5.6693Y-4.2307
X5.6693Y-4.3307
X0.7874Y-6.3567
X0.7874Y-6.4567
X4.5669Y-4.2307
X4.5669Y-4.3307
T5
X4.275Y-6.495
X4.3734Y-6.495
X3.25Y-4.6
X3.25Y-4.7
X3.25Y-4.8
X3.25Y-4.9
X3.25Y-5.0
X3.25Y-5.1
X3.25Y-5.2
X3.25Y-5.3
X3.25Y-5.4
X3.25Y-5.5
X3.25Y-5.6
X3.25Y-5.7
X3.25Y-5.8
X3.25Y-5.9
X3.25Y-6.0
X3.85Y-4.6
X3.85Y-4.7
X3.85Y-4.8
X3.85Y-4.9
X3.85Y-5.0
X3.85Y-5.1
X3.85Y-5.2
X3.85Y-5.3
X3.85Y-5.4
X3.85Y-5.5
X3.85Y-5.6
X3.85Y-5.7
X3.85Y-5.8
X3.85Y-5.9
X3.85Y-6.0
X3.935Y-6.495
X4.0334Y-6.495
T0
M30
